{
    "asset" : {
        "generator" : "Khronos glTF Blender I/O v1.1.46",
        "version" : "2.0"
    },
    "scene" : 0,
    "scenes" : [
        {
            "name" : "Scene",
            "nodes" : [
                0
            ]
        }
    ],
    "nodes" : [
        {
            "mesh" : 0,
            "name" : "brleg",
            "rotation" : [
                0,
                -0.10385458171367645,
                0,
                0.9945924878120422
            ],
            "scale" : [
                0.8548246622085571,
                0.8548246622085571,
                0.8548246622085571
            ],
            "translation" : [
                -0.2854694128036499,
                -0.08077511191368103,
                -0.9910991787910461
            ]
        }
    ],
    "meshes" : [
        {
            "name" : "Sphere.003",
            "primitives" : [
                {
                    "attributes" : {
                        "POSITION" : 0,
                        "NORMAL" : 1,
                        "TEXCOORD_0" : 2
                    },
                    "indices" : 3
                }
            ]
        }
    ],
    "accessors" : [
        {
            "bufferView" : 0,
            "componentType" : 5126,
            "count" : 777,
            "max" : [
                0.9104315638542175,
                0.994725227355957,
                0.9894901514053345
            ],
            "min" : [
                -1.3647960424423218,
                -0.994725227355957,
                -0.8200684189796448
            ],
            "type" : "VEC3"
        },
        {
            "bufferView" : 1,
            "componentType" : 5126,
            "count" : 777,
            "type" : "VEC3"
        },
        {
            "bufferView" : 2,
            "componentType" : 5126,
            "count" : 777,
            "type" : "VEC2"
        },
        {
            "bufferView" : 3,
            "componentType" : 5123,
            "count" : 4464,
            "type" : "SCALAR"
        }
    ],
    "bufferViews" : [
        {
            "buffer" : 0,
            "byteLength" : 9324,
            "byteOffset" : 0
        },
        {
            "buffer" : 0,
            "byteLength" : 9324,
            "byteOffset" : 9324
        },
        {
            "buffer" : 0,
            "byteLength" : 6216,
            "byteOffset" : 18648
        },
        {
            "buffer" : 0,
            "byteLength" : 8928,
            "byteOffset" : 24864
        }
    ],
    "buffers" : [
        {
            "byteLength" : 33792,
            "uri" : "data:application/octet-stream;base64,"
        }
    ]
}
