{
    "asset" : {
        "generator" : "Khronos glTF Blender I/O v1.1.46",
        "version" : "2.0"
    },
    "scene" : 0,
    "scenes" : [
        {
            "name" : "Scene",
            "nodes" : [
                0
            ]
        }
    ],
    "nodes" : [
        {
            "mesh" : 0,
            "name" : "flleg",
            "rotation" : [
                0.08698095381259918,
                0.15096160769462585,
                0.7030452489852905,
                0.689472496509552
            ],
            "scale" : [
                -0.6644594669342041,
                -0.6644594669342041,
                -0.6644594669342041
            ],
            "translation" : [
                4.585000514984131,
                -0.8789246082305908,
                -0.9226753115653992
            ]
        }
    ],
    "meshes" : [
        {
            "name" : "Cylinder.001",
            "primitives" : [
                {
                    "attributes" : {
                        "POSITION" : 0,
                        "NORMAL" : 1,
                        "TEXCOORD_0" : 2
                    },
                    "indices" : 3
                }
            ]
        }
    ],
    "accessors" : [
        {
            "bufferView" : 0,
            "componentType" : 5126,
            "count" : 294,
            "max" : [
                1.0440104007720947,
                0.9822788834571838,
                1.0386930704116821
            ],
            "min" : [
                -1.1305415630340576,
                -1.4900603294372559,
                -1.1316696405410767
            ],
            "type" : "VEC3"
        },
        {
            "bufferView" : 1,
            "componentType" : 5126,
            "count" : 294,
            "type" : "VEC3"
        },
        {
            "bufferView" : 2,
            "componentType" : 5126,
            "count" : 294,
            "type" : "VEC2"
        },
        {
            "bufferView" : 3,
            "componentType" : 5123,
            "count" : 1404,
            "type" : "SCALAR"
        }
    ],
    "bufferViews" : [
        {
            "buffer" : 0,
            "byteLength" : 3528,
            "byteOffset" : 0
        },
        {
            "buffer" : 0,
            "byteLength" : 3528,
            "byteOffset" : 3528
        },
        {
            "buffer" : 0,
            "byteLength" : 2352,
            "byteOffset" : 7056
        },
        {
            "buffer" : 0,
            "byteLength" : 2808,
            "byteOffset" : 9408
        }
    ],
    "buffers" : [
        {
            "byteLength" : 12216,
            "uri" : "data:application/octet-stream;base64,"
        }
    ]
}
