{
    "asset" : {
        "generator" : "Khronos glTF Blender I/O v1.1.46",
        "version" : "2.0"
    },
    "scene" : 0,
    "scenes" : [
        {
            "name" : "Scene",
            "nodes" : [
                0
            ]
        }
    ],
    "nodes" : [
        {
            "mesh" : 0,
            "name" : "frleg",
            "rotation" : [
                0.5455365777015686,
                -0.3354620039463043,
                0.21284089982509613,
                -0.7379389405250549
            ],
            "scale" : [
                -0.6644594669342041,
                -0.6644594669342041,
                -0.6644594669342041
            ],
            "translation" : [
                1.948037028312683,
                -1.0015437602996826,
                2.3802218437194824
            ]
        }
    ],
    "meshes" : [
        {
            "name" : "Cylinder.003",
            "primitives" : [
                {
                    "attributes" : {
                        "POSITION" : 0,
                        "NORMAL" : 1,
                        "TEXCOORD_0" : 2
                    },
                    "indices" : 3
                }
            ]
        }
    ],
    "accessors" : [
        {
            "bufferView" : 0,
            "componentType" : 5126,
            "count" : 294,
            "max" : [
                1.0749648809432983,
                1.0016082525253296,
                1.0682265758514404
            ],
            "min" : [
                -1.1591246128082275,
                -1.5009229183197021,
                -1.1598602533340454
            ],
            "type" : "VEC3"
        },
        {
            "bufferView" : 1,
            "componentType" : 5126,
            "count" : 294,
            "type" : "VEC3"
        },
        {
            "bufferView" : 2,
            "componentType" : 5126,
            "count" : 294,
            "type" : "VEC2"
        },
        {
            "bufferView" : 3,
            "componentType" : 5123,
            "count" : 1404,
            "type" : "SCALAR"
        }
    ],
    "bufferViews" : [
        {
            "buffer" : 0,
            "byteLength" : 3528,
            "byteOffset" : 0
        },
        {
            "buffer" : 0,
            "byteLength" : 3528,
            "byteOffset" : 3528
        },
        {
            "buffer" : 0,
            "byteLength" : 2352,
            "byteOffset" : 7056
        },
        {
            "buffer" : 0,
            "byteLength" : 2808,
            "byteOffset" : 9408
        }
    ],
    "buffers" : [
        {
            "byteLength" : 12216,
            "uri" : "data:application/octet-stream;base64,"
        }
    ]
}
