{
    "asset" : {
        "generator" : "Khronos glTF Blender I/O v1.1.46",
        "version" : "2.0"
    },
    "scene" : 0,
    "scenes" : [
        {
            "name" : "Scene",
            "nodes" : [
                0
            ]
        }
    ],
    "nodes" : [
        {
            "mesh" : 0,
            "name" : "head.003",
            "rotation" : [
                -0.5279162526130676,
                0.3495275378227234,
                0.28210020065307617,
                0.7208012342453003
            ],
            "translation" : [
                4.052441120147705,
                -0.32861053943634033,
                1.3878889083862305
            ]
        }
    ],
    "meshes" : [
        {
            "name" : "Circle.006",
            "primitives" : [
                {
                    "attributes" : {
                        "POSITION" : 0,
                        "NORMAL" : 1,
                        "TEXCOORD_0" : 2
                    },
                    "indices" : 3
                }
            ]
        }
    ],
    "accessors" : [
        {
            "bufferView" : 0,
            "componentType" : 5126,
            "count" : 1797,
            "max" : [
                1.882656216621399,
                1.4853060245513916,
                2.09356689453125
            ],
            "min" : [
                -1.68565034866333,
                -0.7587753534317017,
                -1.7521320581436157
            ],
            "type" : "VEC3"
        },
        {
            "bufferView" : 1,
            "componentType" : 5126,
            "count" : 1797,
            "type" : "VEC3"
        },
        {
            "bufferView" : 2,
            "componentType" : 5126,
            "count" : 1797,
            "type" : "VEC2"
        },
        {
            "bufferView" : 3,
            "componentType" : 5123,
            "count" : 9594,
            "type" : "SCALAR"
        }
    ],
    "bufferViews" : [
        {
            "buffer" : 0,
            "byteLength" : 21564,
            "byteOffset" : 0
        },
        {
            "buffer" : 0,
            "byteLength" : 21564,
            "byteOffset" : 21564
        },
        {
            "buffer" : 0,
            "byteLength" : 14376,
            "byteOffset" : 43128
        },
        {
            "buffer" : 0,
            "byteLength" : 19188,
            "byteOffset" : 57504
        }
    ],
    "buffers" : [
        {
            "byteLength" : 76692,
            "uri" : "data:application/octet-stream;base64,"
        }
    ]
}
