{
    "asset" : {
        "generator" : "Khronos glTF Blender I/O v1.1.46",
        "version" : "2.0"
    },
    "scene" : 0,
    "scenes" : [
        {
            "name" : "Scene",
            "nodes" : [
                0
            ]
        }
    ],
    "nodes" : [
        {
            "mesh" : 0,
            "name" : "head",
            "scale" : [
                0.9410053491592407,
                0.9410053491592407,
                0.9410053491592407
            ],
            "translation" : [
                0.10493911802768707,
                1.6009137630462646,
                0
            ]
        }
    ],
    "materials" : [
        {
            "doubleSided" : true,
            "emissiveFactor" : [
                0,
                0,
                0
            ],
            "name" : "Material.003",
            "pbrMetallicRoughness" : {
                "baseColorFactor" : [
                    0.800000011920929,
                    0.800000011920929,
                    0.800000011920929,
                    1
                ],
                "metallicFactor" : 0,
                "roughnessFactor" : 0.4000000059604645
            }
        }
    ],
    "meshes" : [
        {
            "name" : "Cube.022",
            "primitives" : [
                {
                    "attributes" : {
                        "POSITION" : 0,
                        "NORMAL" : 1,
                        "TEXCOORD_0" : 2
                    },
                    "indices" : 3,
                    "material" : 0
                }
            ]
        }
    ],
    "accessors" : [
        {
            "bufferView" : 0,
            "componentType" : 5126,
            "count" : 2318,
            "max" : [
                1.1944630146026611,
                1.2493377923965454,
                1.1598256826400757
            ],
            "min" : [
                -1.1935621500015259,
                -1.2526289224624634,
                -1.187941312789917
            ],
            "type" : "VEC3"
        },
        {
            "bufferView" : 1,
            "componentType" : 5126,
            "count" : 2318,
            "type" : "VEC3"
        },
        {
            "bufferView" : 2,
            "componentType" : 5126,
            "count" : 2318,
            "type" : "VEC2"
        },
        {
            "bufferView" : 3,
            "componentType" : 5123,
            "count" : 12528,
            "type" : "SCALAR"
        }
    ],
    "bufferViews" : [
        {
            "buffer" : 0,
            "byteLength" : 27816,
            "byteOffset" : 0
        },
        {
            "buffer" : 0,
            "byteLength" : 27816,
            "byteOffset" : 27816
        },
        {
            "buffer" : 0,
            "byteLength" : 18544,
            "byteOffset" : 55632
        },
        {
            "buffer" : 0,
            "byteLength" : 25056,
            "byteOffset" : 74176
        }
    ],
    "buffers" : [
        {
            "byteLength" : 99232,
            "uri" : "data:application/octet-stream;base64,"
        }
    ]
}
