{
    "asset" : {
        "generator" : "Khronos glTF Blender I/O v1.1.46",
        "version" : "2.0"
    },
    "scene" : 0,
    "scenes" : [
        {
            "name" : "Scene",
            "nodes" : [
                0
            ]
        }
    ],
    "nodes" : [
        {
            "mesh" : 0,
            "name" : "l_leg",
            "rotation" : [
                -0.002635609358549118,
                -0.017660798504948616,
                0.011049241758883,
                0.9997795224189758
            ],
            "scale" : [
                0.5293654799461365,
                1.1827073097229004,
                0.4329208731651306
            ],
            "translation" : [
                0.6499518752098083,
                -3.1677346229553223,
                0
            ]
        }
    ],
    "meshes" : [
        {
            "name" : "Cube.020",
            "primitives" : [
                {
                    "attributes" : {
                        "POSITION" : 0,
                        "NORMAL" : 1,
                        "TEXCOORD_0" : 2
                    },
                    "indices" : 3
                }
            ]
        }
    ],
    "accessors" : [
        {
            "bufferView" : 0,
            "componentType" : 5126,
            "count" : 1807,
            "max" : [
                1.0631129741668701,
                1.1764556169509888,
                1.5684826374053955
            ],
            "min" : [
                -1.120089054107666,
                -1.1462894678115845,
                -1.2400033473968506
            ],
            "type" : "VEC3"
        },
        {
            "bufferView" : 1,
            "componentType" : 5126,
            "count" : 1807,
            "type" : "VEC3"
        },
        {
            "bufferView" : 2,
            "componentType" : 5126,
            "count" : 1807,
            "type" : "VEC2"
        },
        {
            "bufferView" : 3,
            "componentType" : 5123,
            "count" : 9744,
            "type" : "SCALAR"
        }
    ],
    "bufferViews" : [
        {
            "buffer" : 0,
            "byteLength" : 21684,
            "byteOffset" : 0
        },
        {
            "buffer" : 0,
            "byteLength" : 21684,
            "byteOffset" : 21684
        },
        {
            "buffer" : 0,
            "byteLength" : 14456,
            "byteOffset" : 43368
        },
        {
            "buffer" : 0,
            "byteLength" : 19488,
            "byteOffset" : 57824
        }
    ],
    "buffers" : [
        {
            "byteLength" : 77312,
            "uri" : "data:application/octet-stream;base64,"
        }
    ]
}
