{
    "asset" : {
        "generator" : "Khronos glTF Blender I/O v1.1.46",
        "version" : "2.0"
    },
    "scene" : 0,
    "scenes" : [
        {
            "name" : "Scene",
            "nodes" : [
                0
            ]
        }
    ],
    "nodes" : [
        {
            "mesh" : 0,
            "name" : "r_arm",
            "rotation" : [
                0.006021525710821152,
                -0.0006063590990379453,
                -0.0671338140964508,
                0.9977256059646606
            ],
            "scale" : [
                0.5724126696586609,
                1.0953247547149658,
                0.49067816138267517
            ],
            "translation" : [
                -1.5859177112579346,
                -0.6384640336036682,
                0
            ]
        }
    ],
    "meshes" : [
        {
            "name" : "Cube.019",
            "primitives" : [
                {
                    "attributes" : {
                        "POSITION" : 0,
                        "NORMAL" : 1,
                        "TEXCOORD_0" : 2
                    },
                    "indices" : 3
                }
            ]
        }
    ],
    "accessors" : [
        {
            "bufferView" : 0,
            "componentType" : 5126,
            "count" : 1534,
            "max" : [
                1.1509021520614624,
                1.1900774240493774,
                1.1492818593978882
            ],
            "min" : [
                -1.0980803966522217,
                -1.2711279392242432,
                -1.1246761083602905
            ],
            "type" : "VEC3"
        },
        {
            "bufferView" : 1,
            "componentType" : 5126,
            "count" : 1534,
            "type" : "VEC3"
        },
        {
            "bufferView" : 2,
            "componentType" : 5126,
            "count" : 1534,
            "type" : "VEC2"
        },
        {
            "bufferView" : 3,
            "componentType" : 5123,
            "count" : 8064,
            "type" : "SCALAR"
        }
    ],
    "bufferViews" : [
        {
            "buffer" : 0,
            "byteLength" : 18408,
            "byteOffset" : 0
        },
        {
            "buffer" : 0,
            "byteLength" : 18408,
            "byteOffset" : 18408
        },
        {
            "buffer" : 0,
            "byteLength" : 12272,
            "byteOffset" : 36816
        },
        {
            "buffer" : 0,
            "byteLength" : 16128,
            "byteOffset" : 49088
        }
    ],
    "buffers" : [
        {
            "byteLength" : 65216,
            "uri" : "data:application/octet-stream;base64,"
        }
    ]
}
