{
    "asset" : {
        "generator" : "Khronos glTF Blender I/O v1.1.46",
        "version" : "2.0"
    },
    "scene" : 0,
    "scenes" : [
        {
            "name" : "Scene",
            "nodes" : [
                0
            ]
        }
    ],
    "nodes" : [
        {
            "mesh" : 0,
            "name" : "LeftArm_old.002",
            "rotation" : [
                0.019695045426487923,
                -0.00518429558724165,
                0.12321554869413376,
                0.9921709299087524
            ],
            "scale" : [
                0.5724126696586609,
                1.0953247547149658,
                0.49067816138267517
            ],
            "translation" : [
                1.8282771110534668,
                -0.6384640336036682,
                0
            ]
        }
    ],
    "meshes" : [
        {
            "name" : "Cube.021",
            "primitives" : [
                {
                    "attributes" : {
                        "POSITION" : 0,
                        "NORMAL" : 1,
                        "TEXCOORD_0" : 2
                    },
                    "indices" : 3
                }
            ]
        }
    ],
    "accessors" : [
        {
            "bufferView" : 0,
            "componentType" : 5126,
            "count" : 1521,
            "max" : [
                1.1509021520614624,
                1.1900774240493774,
                1.1492818593978882
            ],
            "min" : [
                -1.0980803966522217,
                -1.2711279392242432,
                -1.1246761083602905
            ],
            "type" : "VEC3"
        },
        {
            "bufferView" : 1,
            "componentType" : 5126,
            "count" : 1521,
            "type" : "VEC3"
        },
        {
            "bufferView" : 2,
            "componentType" : 5126,
            "count" : 1521,
            "type" : "VEC2"
        },
        {
            "bufferView" : 3,
            "componentType" : 5123,
            "count" : 8064,
            "type" : "SCALAR"
        }
    ],
    "bufferViews" : [
        {
            "buffer" : 0,
            "byteLength" : 18252,
            "byteOffset" : 0
        },
        {
            "buffer" : 0,
            "byteLength" : 18252,
            "byteOffset" : 18252
        },
        {
            "buffer" : 0,
            "byteLength" : 12168,
            "byteOffset" : 36504
        },
        {
            "buffer" : 0,
            "byteLength" : 16128,
            "byteOffset" : 48672
        }
    ],
    "buffers" : [
        {
            "byteLength" : 64800,
            "uri" : "data:application/octet-stream;base64,"
        }
    ]
}
