{
    "asset" : {
        "generator" : "Khronos glTF Blender I/O v1.1.46",
        "version" : "2.0"
    },
    "scene" : 0,
    "scenes" : [
        {
            "name" : "Scene",
            "nodes" : [
                0
            ]
        }
    ],
    "nodes" : [
        {
            "mesh" : 0,
            "name" : "body",
            "scale" : [
                1,
                1.1664917469024658,
                0.5595796704292297
            ],
            "translation" : [
                0.11653031408786774,
                -0.7045696377754211,
                0
            ]
        }
    ],
    "meshes" : [
        {
            "name" : "Cube.023",
            "primitives" : [
                {
                    "attributes" : {
                        "POSITION" : 0,
                        "NORMAL" : 1,
                        "TEXCOORD_0" : 2
                    },
                    "indices" : 3
                }
            ]
        }
    ],
    "accessors" : [
        {
            "bufferView" : 0,
            "componentType" : 5126,
            "count" : 1710,
            "max" : [
                1.1248998641967773,
                1.0892633199691772,
                1.3833986520767212
            ],
            "min" : [
                -1.1417475938796997,
                -1.2169955968856812,
                -1.2805655002593994
            ],
            "type" : "VEC3"
        },
        {
            "bufferView" : 1,
            "componentType" : 5126,
            "count" : 1710,
            "type" : "VEC3"
        },
        {
            "bufferView" : 2,
            "componentType" : 5126,
            "count" : 1710,
            "type" : "VEC2"
        },
        {
            "bufferView" : 3,
            "componentType" : 5123,
            "count" : 9072,
            "type" : "SCALAR"
        }
    ],
    "bufferViews" : [
        {
            "buffer" : 0,
            "byteLength" : 20520,
            "byteOffset" : 0
        },
        {
            "buffer" : 0,
            "byteLength" : 20520,
            "byteOffset" : 20520
        },
        {
            "buffer" : 0,
            "byteLength" : 13680,
            "byteOffset" : 41040
        },
        {
            "buffer" : 0,
            "byteLength" : 18144,
            "byteOffset" : 54720
        }
    ],
    "buffers" : [
        {
            "byteLength" : 72864,
            "uri" : "data:application/octet-stream;base64,"
        }
    ]
}
