{
    "asset" : {
        "generator" : "Khronos glTF Blender I/O v1.1.46",
        "version" : "2.0"
    },
    "scene" : 0,
    "scenes" : [
        {
            "name" : "Scene",
            "nodes" : [
                0,
                1,
                2,
                3
            ]
        }
    ],
    "nodes" : [
        {
            "mesh" : 0,
            "name" : "hair",
            "scale" : [
                1.369752049446106,
                1.369752049446106,
                1.369752049446106
            ],
            "translation" : [
                0.06532319635152817,
                1.36848783493042,
                0
            ]
        },
        {
            "mesh" : 1,
            "name" : "HairBow_base.003",
            "scale" : [
                1.369752049446106,
                1.369752049446106,
                1.369752049446106
            ],
            "translation" : [
                0.06532319635152817,
                1.2030816078186035,
                0
            ]
        },
        {
            "mesh" : 2,
            "name" : "HeadBow.007",
            "rotation" : [
                0.15739868581295013,
                -0.07765080779790878,
                0.4355601370334625,
                0.8828835487365723
            ],
            "scale" : [
                0.47269174456596375,
                0.47269174456596375,
                0.47269174456596375
            ],
            "translation" : [
                -0.5890958309173584,
                3.5497121810913086,
                -0.7744668126106262
            ]
        },
        {
            "mesh" : 3,
            "name" : "HeadBow.008",
            "rotation" : [
                0.03648616373538971,
                -0.17309792339801788,
                -0.41927334666252136,
                0.8904581665992737
            ],
            "scale" : [
                0.47269174456596375,
                0.47269174456596375,
                0.47269174456596375
            ],
            "translation" : [
                0.8674355745315552,
                3.335749387741089,
                -0.7744668126106262
            ]
        }
    ],
    "meshes" : [
        {
            "name" : "Sphere.038",
            "primitives" : [
                {
                    "attributes" : {
                        "POSITION" : 0,
                        "NORMAL" : 1,
                        "TEXCOORD_0" : 2
                    },
                    "indices" : 3
                }
            ]
        },
        {
            "name" : "Sphere.039",
            "primitives" : [
                {
                    "attributes" : {
                        "POSITION" : 4,
                        "NORMAL" : 5,
                        "TEXCOORD_0" : 6
                    },
                    "indices" : 7
                }
            ]
        },
        {
            "name" : "Sphere.040",
            "primitives" : [
                {
                    "attributes" : {
                        "POSITION" : 8,
                        "NORMAL" : 9,
                        "TEXCOORD_0" : 10
                    },
                    "indices" : 11
                }
            ]
        },
        {
            "name" : "Sphere.041",
            "primitives" : [
                {
                    "attributes" : {
                        "POSITION" : 12,
                        "NORMAL" : 13,
                        "TEXCOORD_0" : 14
                    },
                    "indices" : 11
                }
            ]
        }
    ],
    "accessors" : [
        {
            "bufferView" : 0,
            "componentType" : 5126,
            "count" : 5996,
            "max" : [
                1.1709225177764893,
                1.0445243120193481,
                0.958412766456604
            ],
            "min" : [
                -1.1255911588668823,
                -1.699745774269104,
                -1.0685410499572754
            ],
            "type" : "VEC3"
        },
        {
            "bufferView" : 1,
            "componentType" : 5126,
            "count" : 5996,
            "type" : "VEC3"
        },
        {
            "bufferView" : 2,
            "componentType" : 5126,
            "count" : 5996,
            "type" : "VEC2"
        },
        {
            "bufferView" : 3,
            "componentType" : 5123,
            "count" : 34920,
            "type" : "SCALAR"
        },
        {
            "bufferView" : 4,
            "componentType" : 5126,
            "count" : 476,
            "max" : [
                1.0604608058929443,
                1.2258226871490479,
                0.008499170653522015
            ],
            "min" : [
                -1.0604605674743652,
                0.6132891774177551,
                -0.18703478574752808
            ],
            "type" : "VEC3"
        },
        {
            "bufferView" : 5,
            "componentType" : 5126,
            "count" : 476,
            "type" : "VEC3"
        },
        {
            "bufferView" : 6,
            "componentType" : 5126,
            "count" : 476,
            "type" : "VEC2"
        },
        {
            "bufferView" : 7,
            "componentType" : 5123,
            "count" : 1512,
            "type" : "SCALAR"
        },
        {
            "bufferView" : 8,
            "componentType" : 5126,
            "count" : 1218,
            "max" : [
                1.1278668642044067,
                1.3868547677993774,
                2.102303981781006
            ],
            "min" : [
                -1.0687296390533447,
                -1.5420843362808228,
                0.9109838008880615
            ],
            "type" : "VEC3"
        },
        {
            "bufferView" : 9,
            "componentType" : 5126,
            "count" : 1218,
            "type" : "VEC3"
        },
        {
            "bufferView" : 10,
            "componentType" : 5126,
            "count" : 1218,
            "type" : "VEC2"
        },
        {
            "bufferView" : 11,
            "componentType" : 5123,
            "count" : 5952,
            "type" : "SCALAR"
        },
        {
            "bufferView" : 12,
            "componentType" : 5126,
            "count" : 1218,
            "max" : [
                1.1278668642044067,
                1.3868547677993774,
                2.102303981781006
            ],
            "min" : [
                -1.0687296390533447,
                -1.5420843362808228,
                0.9109838008880615
            ],
            "type" : "VEC3"
        },
        {
            "bufferView" : 13,
            "componentType" : 5126,
            "count" : 1218,
            "type" : "VEC3"
        },
        {
            "bufferView" : 14,
            "componentType" : 5126,
            "count" : 1218,
            "type" : "VEC2"
        }
    ],
    "bufferViews" : [
        {
            "buffer" : 0,
            "byteLength" : 71952,
            "byteOffset" : 0
        },
        {
            "buffer" : 0,
            "byteLength" : 71952,
            "byteOffset" : 71952
        },
        {
            "buffer" : 0,
            "byteLength" : 47968,
            "byteOffset" : 143904
        },
        {
            "buffer" : 0,
            "byteLength" : 69840,
            "byteOffset" : 191872
        },
        {
            "buffer" : 0,
            "byteLength" : 5712,
            "byteOffset" : 261712
        },
        {
            "buffer" : 0,
            "byteLength" : 5712,
            "byteOffset" : 267424
        },
        {
            "buffer" : 0,
            "byteLength" : 3808,
            "byteOffset" : 273136
        },
        {
            "buffer" : 0,
            "byteLength" : 3024,
            "byteOffset" : 276944
        },
        {
            "buffer" : 0,
            "byteLength" : 14616,
            "byteOffset" : 279968
        },
        {
            "buffer" : 0,
            "byteLength" : 14616,
            "byteOffset" : 294584
        },
        {
            "buffer" : 0,
            "byteLength" : 9744,
            "byteOffset" : 309200
        },
        {
            "buffer" : 0,
            "byteLength" : 11904,
            "byteOffset" : 318944
        },
        {
            "buffer" : 0,
            "byteLength" : 14616,
            "byteOffset" : 330848
        },
        {
            "buffer" : 0,
            "byteLength" : 14616,
            "byteOffset" : 345464
        },
        {
            "buffer" : 0,
            "byteLength" : 9744,
            "byteOffset" : 360080
        }
    ],
    "buffers" : [
        {
            "byteLength" : 369824,
            "uri" : "data:application/octet-stream;base64,"
        }
    ]
}
