{
    "asset" : {
        "generator" : "Khronos glTF Blender I/O v1.1.46",
        "version" : "2.0"
    },
    "scene" : 0,
    "scenes" : [
        {
            "name" : "Scene",
            "nodes" : [
                0
            ]
        }
    ],
    "nodes" : [
        {
            "mesh" : 0,
            "name" : "r_arm",
            "rotation" : [
                -0.09273996204137802,
                0.10134714096784592,
                0.8941610455513,
                0.4261503517627716
            ],
            "scale" : [
                0.2868296205997467,
                0.2868296205997467,
                0.2868296504020691
            ],
            "translation" : [
                -0.9407697319984436,
                -1.1157760620117188,
                0
            ]
        }
    ],
    "meshes" : [
        {
            "name" : "Sphere.034",
            "primitives" : [
                {
                    "attributes" : {
                        "POSITION" : 0,
                        "NORMAL" : 1,
                        "TEXCOORD_0" : 2
                    },
                    "indices" : 3
                }
            ]
        }
    ],
    "accessors" : [
        {
            "bufferView" : 0,
            "componentType" : 5126,
            "count" : 810,
            "max" : [
                0.9262674450874329,
                3.26204776763916,
                1.0644197463989258
            ],
            "min" : [
                -1.4439220428466797,
                -2.6411073207855225,
                -1.0719205141067505
            ],
            "type" : "VEC3"
        },
        {
            "bufferView" : 1,
            "componentType" : 5126,
            "count" : 810,
            "type" : "VEC3"
        },
        {
            "bufferView" : 2,
            "componentType" : 5126,
            "count" : 810,
            "type" : "VEC2"
        },
        {
            "bufferView" : 3,
            "componentType" : 5123,
            "count" : 4464,
            "type" : "SCALAR"
        }
    ],
    "bufferViews" : [
        {
            "buffer" : 0,
            "byteLength" : 9720,
            "byteOffset" : 0
        },
        {
            "buffer" : 0,
            "byteLength" : 9720,
            "byteOffset" : 9720
        },
        {
            "buffer" : 0,
            "byteLength" : 6480,
            "byteOffset" : 19440
        },
        {
            "buffer" : 0,
            "byteLength" : 8928,
            "byteOffset" : 25920
        }
    ],
    "buffers" : [
        {
            "byteLength" : 34848,
            "uri" : "data:application/octet-stream;base64,"
        }
    ]
}
