{
    "asset" : {
        "generator" : "Khronos glTF Blender I/O v1.1.46",
        "version" : "2.0"
    },
    "scene" : 0,
    "scenes" : [
        {
            "name" : "Scene",
            "nodes" : [
                0
            ]
        }
    ],
    "nodes" : [
        {
            "mesh" : 0,
            "name" : "Body.003",
            "scale" : [
                0.7781689763069153,
                0.7781689763069153,
                0.7781689763069153
            ],
            "translation" : [
                0.04771643131971359,
                -1.338632583618164,
                0
            ]
        }
    ],
    "meshes" : [
        {
            "name" : "Sphere.033",
            "primitives" : [
                {
                    "attributes" : {
                        "POSITION" : 0,
                        "NORMAL" : 1,
                        "TEXCOORD_0" : 2
                    },
                    "indices" : 3
                }
            ]
        }
    ],
    "accessors" : [
        {
            "bufferView" : 0,
            "componentType" : 5126,
            "count" : 2050,
            "max" : [
                1.046424150466919,
                1.3578170537948608,
                1.0502681732177734
            ],
            "min" : [
                -1.054111123085022,
                -1.3816983699798584,
                -1.0502678155899048
            ],
            "type" : "VEC3"
        },
        {
            "bufferView" : 1,
            "componentType" : 5126,
            "count" : 2050,
            "type" : "VEC3"
        },
        {
            "bufferView" : 2,
            "componentType" : 5126,
            "count" : 2050,
            "type" : "VEC2"
        },
        {
            "bufferView" : 3,
            "componentType" : 5123,
            "count" : 11904,
            "type" : "SCALAR"
        }
    ],
    "bufferViews" : [
        {
            "buffer" : 0,
            "byteLength" : 24600,
            "byteOffset" : 0
        },
        {
            "buffer" : 0,
            "byteLength" : 24600,
            "byteOffset" : 24600
        },
        {
            "buffer" : 0,
            "byteLength" : 16400,
            "byteOffset" : 49200
        },
        {
            "buffer" : 0,
            "byteLength" : 23808,
            "byteOffset" : 65600
        }
    ],
    "buffers" : [
        {
            "byteLength" : 89408,
            "uri" : "data:application/octet-stream;base64,"
        }
    ]
}
