{
    "asset" : {
        "generator" : "Khronos glTF Blender I/O v1.1.46",
        "version" : "2.0"
    },
    "scene" : 0,
    "scenes" : [
        {
            "name" : "Scene",
            "nodes" : [
                0
            ]
        }
    ],
    "nodes" : [
        {
            "mesh" : 0,
            "name" : "RightLeg",
            "rotation" : [
                0.4158875346183777,
                -0.267635315656662,
                0.41509920358657837,
                -0.76361083984375
            ],
            "scale" : [
                0.36828216910362244,
                0.36828213930130005,
                0.36828216910362244
            ],
            "translation" : [
                -0.6387674808502197,
                -2.179696798324585,
                0
            ]
        }
    ],
    "meshes" : [
        {
            "name" : "Sphere.009",
            "primitives" : [
                {
                    "attributes" : {
                        "POSITION" : 0,
                        "NORMAL" : 1,
                        "TEXCOORD_0" : 2
                    },
                    "indices" : 3
                }
            ]
        }
    ],
    "accessors" : [
        {
            "bufferView" : 0,
            "componentType" : 5126,
            "count" : 47616,
            "max" : [
                1.2598819732666016,
                1.061876893043518,
                0.878574013710022
            ],
            "min" : [
                -0.8767079710960388,
                -3.4299497604370117,
                -1.514573335647583
            ],
            "type" : "VEC3"
        },
        {
            "bufferView" : 1,
            "componentType" : 5126,
            "count" : 47616,
            "type" : "VEC3"
        },
        {
            "bufferView" : 2,
            "componentType" : 5126,
            "count" : 47616,
            "type" : "VEC2"
        },
        {
            "bufferView" : 3,
            "componentType" : 5123,
            "count" : 71424,
            "type" : "SCALAR"
        }
    ],
    "bufferViews" : [
        {
            "buffer" : 0,
            "byteLength" : 571392,
            "byteOffset" : 0
        },
        {
            "buffer" : 0,
            "byteLength" : 571392,
            "byteOffset" : 571392
        },
        {
            "buffer" : 0,
            "byteLength" : 380928,
            "byteOffset" : 1142784
        },
        {
            "buffer" : 0,
            "byteLength" : 142848,
            "byteOffset" : 1523712
        }
    ],
    "buffers" : [
        {
            "byteLength" : 1666560,
            "uri" : "data:application/octet-stream;base64,"
        }
    ]
}
