{
    "asset" : {
        "generator" : "Khronos glTF Blender I/O v1.1.46",
        "version" : "2.0"
    },
    "scene" : 0,
    "scenes" : [
        {
            "name" : "Scene",
            "nodes" : [
                0
            ]
        }
    ],
    "nodes" : [
        {
            "mesh" : 0,
            "name" : "LeftArm",
            "rotation" : [
                -0.13710647821426392,
                0.008587615564465523,
                0.9394806623458862,
                -0.31385377049446106
            ],
            "scale" : [
                0.2868296205997467,
                0.2868296205997467,
                0.2868296504020691
            ],
            "translation" : [
                1.0281258821487427,
                -1.1157760620117188,
                0
            ]
        }
    ],
    "meshes" : [
        {
            "name" : "Sphere.007",
            "primitives" : [
                {
                    "attributes" : {
                        "POSITION" : 0,
                        "NORMAL" : 1,
                        "TEXCOORD_0" : 2
                    },
                    "indices" : 3
                }
            ]
        }
    ],
    "accessors" : [
        {
            "bufferView" : 0,
            "componentType" : 5126,
            "count" : 47616,
            "max" : [
                0.9268869161605835,
                3.26204776763916,
                1.0644197463989258
            ],
            "min" : [
                -1.4444916248321533,
                -2.6411073207855225,
                -1.0719205141067505
            ],
            "type" : "VEC3"
        },
        {
            "bufferView" : 1,
            "componentType" : 5126,
            "count" : 47616,
            "type" : "VEC3"
        },
        {
            "bufferView" : 2,
            "componentType" : 5126,
            "count" : 47616,
            "type" : "VEC2"
        },
        {
            "bufferView" : 3,
            "componentType" : 5123,
            "count" : 71424,
            "type" : "SCALAR"
        }
    ],
    "bufferViews" : [
        {
            "buffer" : 0,
            "byteLength" : 571392,
            "byteOffset" : 0
        },
        {
            "buffer" : 0,
            "byteLength" : 571392,
            "byteOffset" : 571392
        },
        {
            "buffer" : 0,
            "byteLength" : 380928,
            "byteOffset" : 1142784
        },
        {
            "buffer" : 0,
            "byteLength" : 142848,
            "byteOffset" : 1523712
        }
    ],
    "buffers" : [
        {
            "byteLength" : 1666560,
            "uri" : "data:application/octet-stream;base64,"
        }
    ]
}
