{
    "asset" : {
        "generator" : "Khronos glTF Blender I/O v1.1.46",
        "version" : "2.0"
    },
    "scene" : 0,
    "scenes" : [
        {
            "name" : "Scene",
            "nodes" : [
                0
            ]
        }
    ],
    "nodes" : [
        {
            "mesh" : 0,
            "name" : "Hair.003",
            "translation" : [
                0.06532319635152817,
                1.36848783493042,
                0
            ]
        }
    ],
    "meshes" : [
        {
            "name" : "Sphere.038",
            "primitives" : [
                {
                    "attributes" : {
                        "POSITION" : 0,
                        "NORMAL" : 1,
                        "TEXCOORD_0" : 2
                    },
                    "indices" : 3
                }
            ]
        }
    ],
    "accessors" : [
        {
            "bufferView" : 0,
            "componentType" : 5126,
            "count" : 8702,
            "max" : [
                1.6038734912872314,
                2.638397216796875,
                1.3127878904342651
            ],
            "min" : [
                -1.5417808294296265,
                -2.328230142593384,
                -1.4636362791061401
            ],
            "type" : "VEC3"
        },
        {
            "bufferView" : 1,
            "componentType" : 5126,
            "count" : 8702,
            "type" : "VEC3"
        },
        {
            "bufferView" : 2,
            "componentType" : 5126,
            "count" : 8702,
            "type" : "VEC2"
        },
        {
            "bufferView" : 3,
            "componentType" : 5123,
            "count" : 48336,
            "type" : "SCALAR"
        }
    ],
    "bufferViews" : [
        {
            "buffer" : 0,
            "byteLength" : 104424,
            "byteOffset" : 0
        },
        {
            "buffer" : 0,
            "byteLength" : 104424,
            "byteOffset" : 104424
        },
        {
            "buffer" : 0,
            "byteLength" : 69616,
            "byteOffset" : 208848
        },
        {
            "buffer" : 0,
            "byteLength" : 96672,
            "byteOffset" : 278464
        }
    ],
    "buffers" : [
        {
            "byteLength" : 375136,
            "uri" : "data:application/octet-stream;base64,"
        }
    ]
}
