{
    "asset" : {
        "generator" : "Khronos glTF Blender I/O v1.1.46",
        "version" : "2.0"
    },
    "scene" : 0,
    "scenes" : [
        {
            "name" : "Scene",
            "nodes" : [
                0
            ]
        }
    ],
    "nodes" : [
        {
            "mesh" : 0,
            "name" : "head",
            "scale" : [
                1.369752049446106,
                1.369752049446106,
                1.369752049446106
            ],
            "translation" : [
                0.06532319635152817,
                1.3391255140304565,
                0
            ]
        }
    ],
    "meshes" : [
        {
            "name" : "Sphere.019",
            "primitives" : [
                {
                    "attributes" : {
                        "POSITION" : 0,
                        "NORMAL" : 1,
                        "TEXCOORD_0" : 2
                    },
                    "indices" : 3
                }
            ]
        }
    ],
    "accessors" : [
        {
            "bufferView" : 0,
            "componentType" : 5126,
            "count" : 2046,
            "max" : [
                1.1020259857177734,
                0.9688087701797485,
                0.9016520380973816
            ],
            "min" : [
                -1.1020256280899048,
                -1.4099371433258057,
                -0.9651350975036621
            ],
            "type" : "VEC3"
        },
        {
            "bufferView" : 1,
            "componentType" : 5126,
            "count" : 2046,
            "type" : "VEC3"
        },
        {
            "bufferView" : 2,
            "componentType" : 5126,
            "count" : 2046,
            "type" : "VEC2"
        },
        {
            "bufferView" : 3,
            "componentType" : 5123,
            "count" : 11904,
            "type" : "SCALAR"
        }
    ],
    "bufferViews" : [
        {
            "buffer" : 0,
            "byteLength" : 24552,
            "byteOffset" : 0
        },
        {
            "buffer" : 0,
            "byteLength" : 24552,
            "byteOffset" : 24552
        },
        {
            "buffer" : 0,
            "byteLength" : 16368,
            "byteOffset" : 49104
        },
        {
            "buffer" : 0,
            "byteLength" : 23808,
            "byteOffset" : 65472
        }
    ],
    "buffers" : [
        {
            "byteLength" : 89280,
            "uri" : "data:application/octet-stream;base64,"
        }
    ]
}
