{
    "asset" : {
        "generator" : "Khronos glTF Blender I/O v1.1.46",
        "version" : "2.0"
    },
    "scene" : 0,
    "scenes" : [
        {
            "name" : "Scene",
            "nodes" : [
                0
            ]
        }
    ],
    "nodes" : [
        {
            "mesh" : 0,
            "name" : "r_leg",
            "rotation" : [
                0.4158875346183777,
                -0.267635315656662,
                0.41509920358657837,
                -0.76361083984375
            ],
            "scale" : [
                0.36828216910362244,
                0.36828213930130005,
                0.36828216910362244
            ],
            "translation" : [
                -0.6387674808502197,
                -2.179696798324585,
                0
            ]
        }
    ],
    "meshes" : [
        {
            "name" : "Sphere.036",
            "primitives" : [
                {
                    "attributes" : {
                        "POSITION" : 0,
                        "NORMAL" : 1,
                        "TEXCOORD_0" : 2
                    },
                    "indices" : 3
                }
            ]
        }
    ],
    "accessors" : [
        {
            "bufferView" : 0,
            "componentType" : 5126,
            "count" : 820,
            "max" : [
                1.259059190750122,
                1.061876893043518,
                0.8782951235771179
            ],
            "min" : [
                -0.8746254444122314,
                -3.4299497604370117,
                -1.511480450630188
            ],
            "type" : "VEC3"
        },
        {
            "bufferView" : 1,
            "componentType" : 5126,
            "count" : 820,
            "type" : "VEC3"
        },
        {
            "bufferView" : 2,
            "componentType" : 5126,
            "count" : 820,
            "type" : "VEC2"
        },
        {
            "bufferView" : 3,
            "componentType" : 5123,
            "count" : 4464,
            "type" : "SCALAR"
        }
    ],
    "bufferViews" : [
        {
            "buffer" : 0,
            "byteLength" : 9840,
            "byteOffset" : 0
        },
        {
            "buffer" : 0,
            "byteLength" : 9840,
            "byteOffset" : 9840
        },
        {
            "buffer" : 0,
            "byteLength" : 6560,
            "byteOffset" : 19680
        },
        {
            "buffer" : 0,
            "byteLength" : 8928,
            "byteOffset" : 26240
        }
    ],
    "buffers" : [
        {
            "byteLength" : 35168,
            "uri" : "data:application/octet-stream;base64,"
        }
    ]
}
