{
    "asset" : {
        "generator" : "Khronos glTF Blender I/O v1.1.46",
        "version" : "2.0"
    },
    "scene" : 0,
    "scenes" : [
        {
            "name" : "Scene",
            "nodes" : [
                0
            ]
        }
    ],
    "nodes" : [
        {
            "mesh" : 0,
            "name" : "bfin",
            "rotation" : [
                -0.0009012946393340826,
                0.15266261994838715,
                0.005834550131112337,
                0.9882607460021973
            ],
            "scale" : [
                0.63425612449646,
                0.63425612449646,
                0.63425612449646
            ],
            "translation" : [
                -0.5137141346931458,
                2.7682790756225586,
                0
            ]
        }
    ],
    "meshes" : [
        {
            "name" : "Cube",
            "primitives" : [
                {
                    "attributes" : {
                        "POSITION" : 0,
                        "NORMAL" : 1,
                        "TEXCOORD_0" : 2
                    },
                    "indices" : 3
                }
            ]
        }
    ],
    "accessors" : [
        {
            "bufferView" : 0,
            "componentType" : 5126,
            "count" : 594,
            "max" : [
                1.0711878538131714,
                1.458865761756897,
                2.0257298946380615
            ],
            "min" : [
                0.0720020979642868,
                -2.965975046157837,
                -3.501140594482422
            ],
            "type" : "VEC3"
        },
        {
            "bufferView" : 1,
            "componentType" : 5126,
            "count" : 594,
            "type" : "VEC3"
        },
        {
            "bufferView" : 2,
            "componentType" : 5126,
            "count" : 594,
            "type" : "VEC2"
        },
        {
            "bufferView" : 3,
            "componentType" : 5123,
            "count" : 3264,
            "type" : "SCALAR"
        }
    ],
    "bufferViews" : [
        {
            "buffer" : 0,
            "byteLength" : 7128,
            "byteOffset" : 0
        },
        {
            "buffer" : 0,
            "byteLength" : 7128,
            "byteOffset" : 7128
        },
        {
            "buffer" : 0,
            "byteLength" : 4752,
            "byteOffset" : 14256
        },
        {
            "buffer" : 0,
            "byteLength" : 6528,
            "byteOffset" : 19008
        }
    ],
    "buffers" : [
        {
            "byteLength" : 25536,
            "uri" : "data:application/octet-stream;base64,"
        }
    ]
}
