{
    "asset" : {
        "generator" : "Khronos glTF Blender I/O v1.1.46",
        "version" : "2.0"
    },
    "scene" : 0,
    "scenes" : [
        {
            "name" : "Scene",
            "nodes" : [
                0
            ]
        }
    ],
    "nodes" : [
        {
            "mesh" : 0,
            "name" : "lfin",
            "rotation" : [
                0.4378888010978699,
                -0.2017962783575058,
                0.10154673457145691,
                0.8701838254928589
            ],
            "translation" : [
                1.2229492664337158,
                -1.817820429801941,
                -1.1961778402328491
            ]
        }
    ],
    "meshes" : [
        {
            "name" : "Cube.003",
            "primitives" : [
                {
                    "attributes" : {
                        "POSITION" : 0,
                        "NORMAL" : 1,
                        "TEXCOORD_0" : 2
                    },
                    "indices" : 3
                }
            ]
        }
    ],
    "accessors" : [
        {
            "bufferView" : 0,
            "componentType" : 5126,
            "count" : 594,
            "max" : [
                0.1374526172876358,
                1.0068358182907104,
                1.1840579509735107
            ],
            "min" : [
                -0.1374526172876358,
                -1.616505742073059,
                -1.49257493019104
            ],
            "type" : "VEC3"
        },
        {
            "bufferView" : 1,
            "componentType" : 5126,
            "count" : 594,
            "type" : "VEC3"
        },
        {
            "bufferView" : 2,
            "componentType" : 5126,
            "count" : 594,
            "type" : "VEC2"
        },
        {
            "bufferView" : 3,
            "componentType" : 5123,
            "count" : 3264,
            "type" : "SCALAR"
        }
    ],
    "bufferViews" : [
        {
            "buffer" : 0,
            "byteLength" : 7128,
            "byteOffset" : 0
        },
        {
            "buffer" : 0,
            "byteLength" : 7128,
            "byteOffset" : 7128
        },
        {
            "buffer" : 0,
            "byteLength" : 4752,
            "byteOffset" : 14256
        },
        {
            "buffer" : 0,
            "byteLength" : 6528,
            "byteOffset" : 19008
        }
    ],
    "buffers" : [
        {
            "byteLength" : 25536,
            "uri" : "data:application/octet-stream;base64,"
        }
    ]
}
