{
    "asset" : {
        "generator" : "Khronos glTF Blender I/O v1.1.46",
        "version" : "2.0"
    },
    "scene" : 0,
    "scenes" : [
        {
            "name" : "Scene",
            "nodes" : [
                0
            ]
        }
    ],
    "nodes" : [
        {
            "mesh" : 0,
            "name" : "rfin",
            "rotation" : [
                0.4239377975463867,
                0.32803165912628174,
                -0.0768570676445961,
                0.8406931161880493
            ],
            "translation" : [
                -1.7430166006088257,
                -1.8508265018463135,
                -0.4877792000770569
            ]
        }
    ],
    "meshes" : [
        {
            "name" : "Cube.004",
            "primitives" : [
                {
                    "attributes" : {
                        "POSITION" : 0,
                        "NORMAL" : 1,
                        "TEXCOORD_0" : 2
                    },
                    "indices" : 3
                }
            ]
        }
    ],
    "accessors" : [
        {
            "bufferView" : 0,
            "componentType" : 5126,
            "count" : 162,
            "max" : [
                0.1374526172876358,
                1.0068358182907104,
                1.165533185005188
            ],
            "min" : [
                -0.1374526172876358,
                -1.616505742073059,
                -1.49257493019104
            ],
            "type" : "VEC3"
        },
        {
            "bufferView" : 1,
            "componentType" : 5126,
            "count" : 162,
            "type" : "VEC3"
        },
        {
            "bufferView" : 2,
            "componentType" : 5126,
            "count" : 162,
            "type" : "VEC2"
        },
        {
            "bufferView" : 3,
            "componentType" : 5123,
            "count" : 816,
            "type" : "SCALAR"
        }
    ],
    "bufferViews" : [
        {
            "buffer" : 0,
            "byteLength" : 1944,
            "byteOffset" : 0
        },
        {
            "buffer" : 0,
            "byteLength" : 1944,
            "byteOffset" : 1944
        },
        {
            "buffer" : 0,
            "byteLength" : 1296,
            "byteOffset" : 3888
        },
        {
            "buffer" : 0,
            "byteLength" : 1632,
            "byteOffset" : 5184
        }
    ],
    "buffers" : [
        {
            "byteLength" : 6816,
            "uri" : "data:application/octet-stream;base64,"
        }
    ]
}
