{
    "asset" : {
        "generator" : "Khronos glTF Blender I/O v1.1.46",
        "version" : "2.0"
    },
    "scene" : 0,
    "scenes" : [
        {
            "name" : "Scene",
            "nodes" : [
                0
            ]
        }
    ],
    "nodes" : [
        {
            "mesh" : 0,
            "name" : "tfin",
            "rotation" : [
                0,
                0.06003126502037048,
                0,
                0.9981964826583862
            ],
            "translation" : [
                -0.7960312962532043,
                -0.3582991063594818,
                -3.27803897857666
            ]
        }
    ],
    "meshes" : [
        {
            "name" : "Cube.001",
            "primitives" : [
                {
                    "attributes" : {
                        "POSITION" : 0,
                        "NORMAL" : 1,
                        "TEXCOORD_0" : 2
                    },
                    "indices" : 3
                }
            ]
        }
    ],
    "accessors" : [
        {
            "bufferView" : 0,
            "componentType" : 5126,
            "count" : 490,
            "max" : [
                0.17903375625610352,
                0.9236880540847778,
                1.4656437635421753
            ],
            "min" : [
                -0.13094349205493927,
                -1.544138789176941,
                -1.01891028881073
            ],
            "type" : "VEC3"
        },
        {
            "bufferView" : 1,
            "componentType" : 5126,
            "count" : 490,
            "type" : "VEC3"
        },
        {
            "bufferView" : 2,
            "componentType" : 5126,
            "count" : 490,
            "type" : "VEC2"
        },
        {
            "bufferView" : 3,
            "componentType" : 5123,
            "count" : 2688,
            "type" : "SCALAR"
        }
    ],
    "bufferViews" : [
        {
            "buffer" : 0,
            "byteLength" : 5880,
            "byteOffset" : 0
        },
        {
            "buffer" : 0,
            "byteLength" : 5880,
            "byteOffset" : 5880
        },
        {
            "buffer" : 0,
            "byteLength" : 3920,
            "byteOffset" : 11760
        },
        {
            "buffer" : 0,
            "byteLength" : 5376,
            "byteOffset" : 15680
        }
    ],
    "buffers" : [
        {
            "byteLength" : 21056,
            "uri" : "data:application/octet-stream;base64,"
        }
    ]
}
