<?xml version="1.0" encoding="utf-8"?>
<!-- Generator: Adobe Illustrator 15.1.0, SVG Export Plug-In . SVG Version: 6.00 Build 0)  -->
<!DOCTYPE svg PUBLIC "-//W3C//DTD SVG 1.1//EN" "http://www.w3.org/Graphics/SVG/1.1/DTD/svg11.dtd">
<svg version="1.1" id="Layer_1" xmlns="http://www.w3.org/2000/svg" xmlns:xlink="http://www.w3.org/1999/xlink" x="0px" y="0px"
	 width="212.879px" height="210.04px" viewBox="0 0 212.879 210.04" enable-background="new 0 0 212.879 210.04"
	 xml:space="preserve">
<g>
	<path fill="#E3A668" d="M106.11,24.487c47.846,0,86.632,38.489,86.632,85.968c0,47.479-38.786,85.967-86.632,85.967
		s-86.631-38.488-86.631-85.967C19.479,62.976,58.265,24.487,106.11,24.487"/>
	<path fill="#232222" d="M106.11,21.606c24.698,0,47.084,9.943,63.297,26.028c16.211,16.085,26.218,38.282,26.218,62.821
		c0,24.507-10.007,46.734-26.218,62.82c-16.213,16.054-38.599,26.027-63.297,26.027c-24.698,0-47.084-9.974-63.296-26.027
		c-16.211-16.086-26.217-38.313-26.217-62.82c0-24.54,10.006-46.736,26.217-62.821C59.026,31.549,81.413,21.606,106.11,21.606
		 M165.354,51.718c-15.168-15.04-36.098-24.349-59.244-24.349c-23.146,0-44.077,9.309-59.242,24.349
		c-15.136,15.009-24.509,35.781-24.509,58.737c0,22.923,9.373,43.696,24.509,58.735c15.166,15.04,36.097,24.317,59.242,24.317
		c23.146,0,44.076-9.277,59.244-24.317c15.135-15.039,24.506-35.813,24.506-58.735C189.86,87.499,180.489,66.727,165.354,51.718"/>
	<path fill="#E3A668" d="M139.483,103.569c0.696-0.474,20.645,32.549,25.966,50.283c5.318,17.731-1.395,20.77-6.713,22.798
		c-5.32,2.025-8.866-0.507-8.866-0.507l-20.012-67.128L139.483,103.569z"/>
	<path fill="#C4874B" d="M139.483,103.569c0.696-0.474,20.645,32.549,25.966,50.283c5.318,17.731-1.395,20.77-6.713,22.798
		c-5.32,2.025-8.866-0.507-8.866-0.507l-0.792-2.628c1.203-0.254,2.691-0.697,3.831-1.456c2.279-1.584,10.48-7.79,7.029-17.509
		c-3.42-9.722-17.319-33.026-17.319-33.026s-2.627,2.216-7.663,4.591l-5.098-17.1L139.483,103.569z"/>
	<path fill="#232222" d="M138.534,101.701L138.534,101.701l0.189-0.095c1.204-0.443,3.167,1.33,5.319,4.718
		c1.583,2.501,3.737,6.079,6.144,10.321c6.301,11.082,14.186,26.312,17.257,36.604c2.849,9.467,2.375,15.199,0.475,18.84
		c-2.025,3.926-5.446,5.351-8.454,6.521c-6.365,2.406-10.766-0.761-10.798-0.761l-0.821-1.106l-19.98-67.159l-0.477-1.583
		l1.457-0.823l9.595-5.446L138.534,101.701z M140.529,108.572c-0.982-1.521,0.381-3.198-0.189-3.104l-8.011,4.528l19.282,64.753
		c1.013,0.442,3.261,1.14,6.363-0.064c2.313-0.887,4.908-1.962,6.239-4.527c1.456-2.786,1.71-7.473-0.792-15.704
		c-2.977-9.943-10.67-24.856-16.877-35.751C144.234,114.65,142.112,111.105,140.529,108.572"/>
	<path fill="#E3A668" d="M76.631,137.102c-0.981,0.442-28.085-31.823-35.305-49.174c-7.25-17.352,1.899-20.329,9.118-22.292
		c7.253-1.995,12.066,0.477,12.066,0.477l27.199,65.669L76.631,137.102z"/>
	<path fill="#C4874B" d="M65.992,125.131c-0.982-1.202-1.995-2.5-3.04-3.798c-0.253-3.673,4.719-14.345,4.719-14.345
		s-4.781-7.472-10.607-23.336c-3.357-9.087-3.8-15.135-3.579-18.65c5.509-0.664,9.025,1.108,9.025,1.108l25.837,62.379
		c-14.092-4.972-17.1-14.027-17.1-14.027L65.992,125.131z"/>
	<path fill="#232222" d="M77.424,139.064c-1.172,0.38-9.056-7.314-17.1-17.731c-7.6-9.879-16.116-22.038-20.233-31.031
		c-0.284-0.602-0.505-1.107-0.696-1.583c-3.958-9.466-3.325-15.198-0.633-18.934c2.691-3.706,7.188-5.099,11.146-6.175
		c8.01-2.185,13.52,0.634,13.551,0.634l0.982,1.075L91.64,130.99l0.79,1.933l-1.961,0.79L77.424,139.064z M63.618,118.768
		c6.998,9.056,12.064,16.466,12.223,16.402l11.113-4.527l-26.06-62.917c-1.393-0.506-4.971-1.425-9.91-0.094
		c-3.261,0.919-6.967,2.026-8.834,4.591c-1.9,2.627-2.185,7.03,1.107,14.913c0.221,0.539,0.412,1.013,0.633,1.458
		C47.848,97.237,56.176,109.111,63.618,118.768"/>
	<path fill="#232222" d="M61.939,149.229c0.918-18.967,5.984-37.586,14.628-47.623l1.266-0.759l28.625-5.479h0.854l28.626,5.479
		l1.296,0.759c8.646,10.037,13.71,28.656,14.629,47.623c0.887,18.681-2.215,37.871-9.878,49.681l-0.412,0.474
		c-0.032,0.032-3.104,2.819-15.452,2.693c-12.317-0.128-16.275-3.674-16.275-3.705l-0.759-1.457l-1.015-9.688l-1.171-0.033
		l-1.171,0.033l-1.047,9.688l-0.728,1.457c-0.03,0.031-3.957,3.577-16.274,3.705c-12.35,0.126-15.452-2.661-15.452-2.693
		l-0.412-0.474C64.155,187.1,61.022,167.909,61.939,149.229"/>
	<path fill="#E3A668" d="M79.481,105.089c-7.695,9.437-12.222,26.661-13.077,44.36c-0.854,17.668,1.963,35.655,8.96,46.673
		c0.666,0.412,3.42,1.552,12.253,1.489c7.886-0.097,11.433-1.458,12.73-2.186l0.919-8.549c-8.52-1.836-14.979-8.866-14.979-8.866
		c13.775,6.079,27.864,7.251,40.499-2.597c0,0-5.985,7.283-14.345,10.45l1.014,9.562c1.298,0.728,4.813,2.089,12.697,2.186
		c8.834,0.063,11.59-1.077,12.286-1.489c6.967-11.018,9.783-29.005,8.929-46.673c-0.854-17.699-5.382-34.924-13.044-44.36
		l-27.423-5.256L79.481,105.089z"/>
	<path fill="#C4874B" d="M74.669,195.014c0.221,0.38,0.442,0.761,0.695,1.108c0.666,0.412,3.42,1.552,12.253,1.489
		c7.886-0.097,11.433-1.458,12.73-2.186l0.919-8.549c-8.52-1.836-14.979-8.866-14.979-8.866c13.775,6.079,27.864,7.251,40.499-2.597
		c0,0-5.985,7.283-14.345,10.45l0.286,2.658c0,0,0.792,0.729,7.884-3.609c7.093-4.337,8.456-11.589,8.456-11.589
		s-11.084,6.872-21.755,7.537c-10.703,0.663-23.178-4.846-23.178-4.846s1.046,4.401,5.067,8.074c4.053,3.672,5.16,4.022,5.16,4.022
		l-0.886,6.142c0,0-5.827,1.646-9.341,1.646C81.635,195.9,77.138,195.33,74.669,195.014 M79.481,105.089
		c-2.627,3.229-4.909,7.378-6.776,12.159c2.818,4.306,10.544,12.38,29.354,14.122c16.654,1.521,28.591-2.914,35.018-6.334
		c1.934,5.352,5.573,18.557,3.865,38.029c-2.218,25.869-5.954,30.968-5.954,30.968s-9.372,1.425-13.836,1.044
		c-3.262-0.285-6.365-0.823-7.853-1.107l0.157,1.456c1.298,0.728,4.813,2.089,12.697,2.186c8.834,0.063,11.59-1.077,12.286-1.489
		c6.967-11.018,9.783-29.005,8.929-46.673c-0.476-9.878-2.09-19.599-4.749-27.928l-0.062-0.127l-0.033-0.094
		c-0.064-0.189-0.096-0.349-0.158-0.508l-0.032-0.093c-0.063-0.159-0.095-0.317-0.157-0.477l-0.033-0.095
		c-0.126-0.348-0.254-0.729-0.379-1.074v-0.034c-1.996-5.509-4.497-10.291-7.44-13.932l-27.423-5.256L79.481,105.089z"/>
	<path fill="#DCDDDD" d="M102.059,131.37c5.285,0.476,10.102,0.38,14.405-0.125l6.556-11.59c-5.512,1.297-11.336,1.678-17.257,1.013
		c-5.098-0.569-9.943-1.87-14.438-3.768l5.73,13.805C98.638,130.99,100.315,131.211,102.059,131.37"/>
	<path fill="#E3A668" d="M152.909,172.059c1.615-1.107,6.206-4.562,7.536-9.976c-1.519,0.95-2.975,1.806-4.274,2.471
		c-2.122,1.076-3.61,1.678-4.654,1.995c-0.159,1.9-0.381,3.8-0.664,5.636l0.252,0.761
		C151.738,172.723,152.371,172.438,152.909,172.059"/>
	<path fill="#C4874B" d="M160.445,162.084c-1.33,5.415-5.921,8.866-7.536,9.975c-0.538,0.379-1.171,0.664-1.804,0.885l0.506,1.807
		c1.014,0.442,3.261,1.14,6.365-0.064c2.311-0.887,4.908-1.963,6.237-4.528c1.141-2.185,1.52-5.539,0.443-10.859
		C163.264,160.248,161.839,161.229,160.445,162.084"/>
	<path fill="#232222" d="M150.408,164.871c0,0,0.854,0,6.016-2.344c5.162-2.312,8.106-5.827,8.106-5.858l2.754,2.313
		c-0.031,0-3.482,4.147-9.371,6.806c-5.89,2.662-7.505,2.662-7.505,2.662V164.871z"/>
	<path fill="#E62129" d="M110.259,121.65c0,0,11.62-6.429,12.412-3.294c0.791,3.135,1.868,13.361-1.964,14.597
		c-3.831,1.235-11.367-5.509-11.367-5.509L110.259,121.65z"/>
	<path fill="#232222" d="M109.625,120.508c0.032-0.03,13.078-7.28,14.313-2.468c0.506,1.994,1.107,6.744,0.633,10.449
		c-0.38,2.754-1.393,5.033-3.482,5.698c-4.529,1.458-12.603-5.731-12.603-5.731l-0.538-0.506l1.108-7.155L109.625,120.508z
		 M121.373,118.673c-0.317-1.234-7.79,2.66-9.912,3.832l-0.696,4.432c1.679,1.426,6.935,5.604,9.531,4.781
		c0.918-0.316,1.425-1.74,1.679-3.546C122.418,124.784,121.847,120.478,121.373,118.673"/>
	<path fill="#E62129" d="M103.419,121.364c0,0-11.051-7.314-12.095-4.243c-1.014,3.04-2.915,13.171,0.792,14.692
		c3.737,1.521,11.779-4.56,11.779-4.56L103.419,121.364z"/>
	<path fill="#232222" d="M102.185,122.123c-2.059-1.33-9.182-5.793-9.593-4.59c-0.602,1.772-1.521,6.016-1.331,9.404
		c0.095,1.835,0.474,3.293,1.362,3.672c2.532,1.046,8.105-2.722,9.91-3.988L102.185,122.123z M90.088,116.709
		c1.584-4.718,14.028,3.549,14.059,3.579l0.538,0.348l0.569,7.22l-0.569,0.444c-0.031,0-8.644,6.554-13.045,4.75
		c-2.026-0.856-2.85-3.199-3.008-5.985C88.442,123.327,89.424,118.643,90.088,116.709"/>
	<path fill="#E62129" d="M105.01,118.917l3.56,0.14c1.384,0.057,2.461,1.222,2.407,2.605l-0.219,5.54
		c-0.055,1.383-1.222,2.46-2.605,2.407l-3.56-0.143c-1.385-0.054-2.462-1.22-2.407-2.604l0.22-5.538
		C102.459,119.94,103.625,118.861,105.01,118.917"/>
	<path fill="#232222" d="M105.066,117.596l3.545,0.159c1.077,0.032,1.994,0.507,2.66,1.235c0.665,0.728,1.076,1.678,1.046,2.723
		l-0.222,5.509c-0.064,1.045-0.509,1.995-1.235,2.66c-0.728,0.665-1.71,1.078-2.756,1.014l-3.545-0.127
		c-1.045-0.03-1.996-0.507-2.66-1.235c-0.666-0.729-1.078-1.71-1.014-2.755l0.191-5.509c0.063-1.046,0.536-1.995,1.235-2.661
		C103.038,117.945,104.019,117.563,105.066,117.596 M108.517,120.383l-3.546-0.159c-0.316,0-0.635,0.129-0.854,0.317
		c-0.223,0.222-0.381,0.506-0.412,0.855l-0.189,5.477c-0.032,0.349,0.094,0.634,0.316,0.888c0.188,0.222,0.505,0.348,0.823,0.379
		l3.545,0.127c0.35,0.033,0.636-0.094,0.856-0.316c0.254-0.189,0.38-0.507,0.411-0.823l0.222-5.511c0-0.315-0.127-0.632-0.316-0.854
		h-0.032C109.15,120.541,108.835,120.383,108.517,120.383"/>
	<path fill="#232222" d="M106.016,132.668c1.137,0,2.058,0.921,2.058,2.059s-0.921,2.059-2.058,2.059s-2.059-0.921-2.059-2.059
		S104.879,132.668,106.016,132.668"/>
	<path fill="#232222" d="M106.078,142.674c1.138,0,2.059,0.921,2.059,2.059c0,1.137-0.921,2.06-2.059,2.06
		c-1.136,0-2.057-0.923-2.057-2.06C104.021,143.595,104.942,142.674,106.078,142.674"/>
	<path fill="#E3A668" d="M55.354,78.492c-1.393-4.876-1.867-8.645-1.9-11.368c-0.759,0.127-1.583,0.286-2.47,0.507
		c-3.261,0.919-6.967,2.026-8.834,4.591c-1.742,2.406-2.123,6.3,0.348,13.014c3.198-2.153,7.092-4.401,11.399-6.174
		C54.372,78.872,54.878,78.65,55.354,78.492"/>
	<path fill="#C4874B" d="M53.454,67.124c0.031,2.724,0.507,6.491,1.901,11.368c1.772-0.666,3.482-1.172,5.129-1.583
		c-0.477-3.104-0.665-6.271-0.571-9.5C58.52,67.028,56.303,66.712,53.454,67.124"/>
	<path fill="#232222" d="M39.775,85.426c0.031,0,2.596-2.755,8.992-5.953c6.27-3.165,12.634-4.623,12.666-4.623l0.792,3.484
		c-0.031,0-5.984,1.361-11.875,4.337c-5.794,2.914-7.978,5.226-7.978,5.226L39.775,85.426z"/>
	<path fill="#232222" d="M85.022,20.071c-2.627-3.357-6.459-5.699-10.955-6.206c-4.497-0.475-8.771,0.951-12.034,3.672
		c-3.292,2.724-5.573,6.713-6.111,11.368c-0.505,4.655,0.855,9.055,3.483,12.444c2.596,3.356,6.458,5.7,10.924,6.175
		c4.496,0.507,8.77-0.919,12.032-3.642c3.292-2.723,5.573-6.714,6.11-11.367C88.98,27.861,87.619,23.428,85.022,20.071"/>
	<path fill="#232222" d="M163.453,29.159c-2.597-3.357-6.458-5.699-10.956-6.174c-4.464-0.506-8.738,0.918-12.032,3.641
		c-3.261,2.724-5.573,6.714-6.078,11.367c-0.507,4.656,0.854,9.089,3.451,12.444c2.596,3.357,6.458,5.7,10.956,6.206
		c4.464,0.476,8.738-0.951,12.032-3.672c3.292-2.691,5.573-6.713,6.079-11.368C167.443,36.948,166.082,32.547,163.453,29.159"/>
	<path fill="#E3A668" d="M73.428,19.634c5.928,0.656,10.185,6.146,9.509,12.264c-0.677,6.117-6.033,10.543-11.963,9.886
		c-5.929-0.657-10.187-6.147-9.508-12.264C62.143,23.403,67.499,18.977,73.428,19.634"/>
	<path fill="#E3A668" d="M73.434,19.628c4.939,0.539,8.708,4.433,9.436,9.277c-3.167-3.452-7.092-6.586-10.957-6.934
		c-8.77-0.792-10.449,8.011-10.512,8.295c0.032-0.253,0.032-0.505,0.063-0.76C62.128,23.397,67.511,18.964,73.434,19.628"/>
	<path fill="#E3A668" d="M151.877,28.729c5.928,0.657,10.186,6.147,9.508,12.264c-0.679,6.117-6.034,10.543-11.963,9.886
		c-5.93-0.656-10.187-6.148-9.507-12.264C140.59,32.499,145.948,28.072,151.877,28.729"/>
	<path fill="#C4874B" d="M155.41,29.761c3.991,1.963,6.492,6.396,5.984,11.241c-0.41,3.671-2.532,6.776-5.445,8.485l-3.704-5.129
		C158.799,40.337,158.261,35.049,155.41,29.761"/>
	<path fill="#232222" d="M148.57,35.271c-8.231-10.387-20.423-17.605-34.575-19.189C99.841,14.531,86.353,18.9,76.063,27.259
		c-10.354,8.327-17.512,20.677-19.095,34.99c-1.583,14.312,2.724,27.926,10.957,38.313c8.232,10.417,20.423,17.638,34.577,19.22
		c14.186,1.552,27.643-2.818,37.965-11.177c10.322-8.36,17.509-20.677,19.093-34.989C161.142,59.272,156.836,45.688,148.57,35.271"
		/>
	<path fill="#232222" d="M71.913,30.964c5.953-7.282,16.275-11.589,25.015-14.375c6.522-2.089,13.141-3.641,19.79-5.256
		c1.678-0.38,7.251-1.678,9.593-2.69c0,0,4.592-1.394,6.431-2.724l1.392,2.122c2.564,3.798,4.022,9.309,2.66,13.773
		c-0.221,0.698-0.442,1.393-0.729,2.059c1.679,1.077,3.294,2.248,4.813,3.514c0.317,0.252,0.602,0.475,0.919,0.76
		c13.109,11.272,19.727,28.275,17.825,45.47c-1.771,16.084-11.145,30.333-24.854,38.788c-9.626,5.921-20.994,8.644-32.266,7.378
		c-12.698-1.393-24.286-7.442-32.772-17.004c-9.848-11.082-14.47-25.805-12.855-40.529v-0.063l0.031-0.065
		C58.488,50.532,63.776,39.418,71.913,30.964"/>
	<path fill="#E3A668" d="M155.348,73.14c1.805-16.433-4.813-31.822-16.401-41.764c-0.223-0.19-0.476-0.411-0.76-0.633
		c-1.583-1.299-3.23-2.471-4.972-3.578c-1.361,0.537-3.862,1.172-7.472,1.044c-5.795-0.222-8.36-1.646-8.36-1.646
		s9.499,0.57,12.351-1.362c0.695-0.477,1.232-0.981,1.613-1.521c0.411-0.664,0.854-1.677,1.298-3.134
		c1.488-4.782-2.091-10.133-2.091-10.133c-0.253,5.351-42.269,7.062-55.41,23.431c-7.568,7.791-12.476,18.112-13.965,28.878
		c-2.912,26.281,15.801,49.902,41.797,52.783C128.496,118.324,152.466,99.009,155.348,73.14"/>
	<path fill="#C4874B" d="M135.367,28.589c-0.695-0.474-1.425-0.951-2.153-1.425c-1.361,0.539-3.862,1.172-7.473,1.044
		c-5.794-0.221-8.359-1.646-8.359-1.646s9.5,0.57,12.35-1.362c0.696-0.474,1.234-0.982,1.615-1.519
		c0.411-0.666,0.854-1.679,1.298-3.135c1.488-4.782-2.091-10.133-2.091-10.133s1.458,8.802-2.501,11.779
		c-3.957,3.008-15.356,3.99-15.356,3.99s5.699,2.818,13.395,3.356C130.332,29.855,133.436,29.222,135.367,28.589"/>
	<path fill="#F1D5BA" d="M107.691,64.856c14.629,1.007,25.777,12.142,24.901,24.872c-0.875,12.731-13.442,22.235-28.072,21.229
		c-14.627-1.006-25.776-12.143-24.901-24.872C80.496,73.354,93.064,63.851,107.691,64.856"/>
	<path fill="#C4874B" d="M131.252,109.521c1.139-0.601,2.248-1.202,3.323-1.867c11.211-7.6,19.156-19.917,20.772-34.515
		c1.678-15.262-3.926-29.636-14.025-39.548c7.472,9.975,11.334,22.989,9.845,36.731c-1.52,14.059-8.707,26.281-18.838,34.418
		c-2.883,2.438-6.08,4.432-9.531,6.016c-5.89,2.817-12.318,4.401-18.966,4.464c-0.792,0.033-1.585,0.065-2.409,0.065
		c0.507,0.093,1.047,0.158,1.552,0.22c5.51,0.602,10.861,0.223,15.959-0.98c2.407-0.792,4.78-1.646,7.093-2.629h0.063l0.032-0.03
		c1.742-0.666,3.42-1.457,5.066-2.313L131.252,109.521z"/>
	<path fill="#232222" d="M87.692,52.66c3.243,0.222,5.642,3.76,5.356,7.899c-0.284,4.141-3.146,7.315-6.389,7.093
		c-3.243-0.223-5.639-3.759-5.356-7.9C81.589,55.611,84.449,52.437,87.692,52.66"/>
	<path fill="#FFFFFF" d="M90.033,54.649c1.14,0.079,1.987,1.232,1.894,2.579c-0.091,1.344-1.09,2.372-2.228,2.295
		c-1.139-0.079-1.987-1.234-1.896-2.58C87.897,55.599,88.894,54.571,90.033,54.649"/>
	<path fill="#232222" d="M131.017,55.257c3.243,0.223,5.641,3.761,5.356,7.9c-0.284,4.14-3.145,7.314-6.389,7.092
		c-3.242-0.223-5.64-3.759-5.354-7.899C124.914,58.209,127.774,55.035,131.017,55.257"/>
	<path fill="#FFFFFF" d="M133.358,57.247c1.14,0.079,1.987,1.232,1.895,2.578c-0.093,1.345-1.091,2.373-2.229,2.295
		s-1.986-1.233-1.895-2.579C131.223,58.196,132.219,57.168,133.358,57.247"/>
	<path fill="#FEFEFE" d="M108.626,73.187c1.503-0.019,2.716,0.589,2.712,1.359c-0.002,0.77-1.224,1.409-2.724,1.428
		c-1.5,0.018-2.717-0.59-2.713-1.359C105.904,73.845,107.125,73.205,108.626,73.187"/>
	<polygon fill="#232222" points="107.598,80.36 107.695,87.865 105.634,87.896 105.541,80.391 	"/>
	<path fill="#232222" d="M106.648,82.735c0,0-8.992-4.212-7.473-7.948C101.899,68.043,126.28,71.462,106.648,82.735"/>
	<path fill="#FEFEFE" d="M109.48,72.167c1.626,0.261,2.847,0.98,2.728,1.607c-0.117,0.628-1.531,0.924-3.155,0.664
		s-2.845-0.979-2.727-1.607C106.444,72.204,107.856,71.906,109.48,72.167"/>
	<path fill="#F08918" d="M88.632,23.998L88.632,23.998c5.667-1.583,13.362-2.787,23.621-1.078
		C101.994,21.211,94.299,22.415,88.632,23.998 M112.253,22.92h0.063H112.253z M112.316,22.92c0,0,0.033,0,0.063,0.033
		C112.35,22.92,112.316,22.92,112.316,22.92 M112.38,22.953h0.063H112.38z M112.475,22.953h0.063H112.475z M112.537,22.953
		c0.033,0.032,0.033,0.032,0.064,0.032C112.57,22.985,112.57,22.985,112.537,22.953 M112.634,22.985h0.063H112.634z M112.696,22.985
		c0.032,0,0.032,0,0.063,0.031C112.729,22.985,112.729,22.985,112.696,22.985 M112.76,23.017h0.063H112.76z M112.854,23.017h0.063
		H112.854z M112.917,23.017c0.033,0.031,0.033,0.031,0.064,0.031C112.95,23.048,112.95,23.048,112.917,23.017 M113.014,23.048h0.063
		H113.014z M113.076,23.048c0.032,0,0.032,0.031,0.063,0.031C113.108,23.079,113.108,23.048,113.076,23.048 M113.139,23.079h0.064
		H113.139z M113.234,23.079c0,0,0.032,0,0.063,0.032C113.267,23.079,113.234,23.079,113.234,23.079 M113.298,23.111h0.063H113.298z
		 M113.361,23.111h0.095H113.361z M113.456,23.144h0.127H113.456z M113.615,23.144c0,0.031,0.032,0.031,0.063,0.031
		C113.647,23.175,113.615,23.175,113.615,23.144 M113.678,23.175c0.063,0,0.096,0,0.159,0.032
		C113.773,23.175,113.74,23.175,113.678,23.175 M113.837,23.207c5.953,1.107,11.524,2.977,16.307,4.592
		C125.361,26.183,119.79,24.313,113.837,23.207"/>
	<path fill="#F6AA03" d="M130.144,27.798L130.144,27.798c4.782,1.614,8.738,2.976,11.399,3.102
		C138.882,30.774,134.926,29.413,130.144,27.798"/>
	<path fill="#332C2B" d="M89.74,83.526c0.159-0.696,0.76-1.14,1.361-0.95c0.571,0.189,0.917,0.95,0.76,1.646
		c-0.634,2.914,2.69,4.814,4.56,5.383c3.325,1.046,7.884,0.381,9.054-4.274c0.19-0.696,0.793-1.109,1.394-0.886
		c0.57,0.221,0.888,0.98,0.698,1.677C104.748,97.332,87.745,92.646,89.74,83.526"/>
	<path fill="#332C2B" d="M123.303,83.589c-0.157-0.729-0.759-1.14-1.329-0.95s-0.918,0.919-0.791,1.647
		c0.348,1.552-0.507,2.976-1.869,4.022c-0.759,0.568-1.677,1.044-2.659,1.36c-1.014,0.285-2.059,0.444-3.102,0.412
		c-2.661-0.095-5.162-1.488-5.985-4.687c-0.159-0.727-0.791-1.108-1.362-0.886c-0.569,0.222-0.887,0.949-0.728,1.677
		c1.171,4.529,4.496,6.429,8.011,6.555c1.234,0.063,2.501-0.126,3.704-0.476c1.172-0.38,2.313-0.949,3.262-1.678
		C122.639,88.941,123.938,86.47,123.303,83.589"/>
	<path fill="#332C2B" d="M98.29,90.081c1.108,2.913,2.564,4.94,4.179,6.143c1.235,0.917,2.565,1.329,3.863,1.329
		c1.299-0.031,2.596-0.506,3.769-1.393c1.551-1.17,2.881-3.04,3.768-5.541l2.532,0.855c-1.076,3.039-2.723,5.351-4.687,6.807
		c-1.613,1.235-3.45,1.901-5.318,1.933c-1.9,0.031-3.768-0.571-5.51-1.838c-1.995-1.488-3.799-3.926-5.097-7.377L98.29,90.081z"/>
	<path fill="#A53033" d="M99.493,92.677c0.475,0.854,0.98,1.583,1.551,2.185c0.442,0.539,0.95,0.982,1.424,1.362
		c1.235,0.917,2.565,1.329,3.862,1.329c1.3-0.031,2.597-0.506,3.77-1.393c0.188-0.157,0.38-0.284,0.538-0.443
		c0.854-0.759,1.646-1.773,2.312-3.008c-2.564-0.221-4.971-1.456-6.429-3.958C104.938,91.379,102.247,92.581,99.493,92.677"/>
	<path fill="#E62129" d="M100.98,94.83l0.064,0.032c0.442,0.539,0.95,0.981,1.424,1.361c1.235,0.918,2.565,1.331,3.864,1.331
		c1.298-0.033,2.595-0.508,3.769-1.394c0.189-0.159,0.378-0.285,0.536-0.442c0.286-0.255,0.57-0.539,0.856-0.856
		c-1.521-0.854-3.325-1.329-5.289-1.329C104.306,93.533,102.501,94.007,100.98,94.83"/>
	<path fill="#232222" d="M74.542,67.157c-6.302-6.841-5.636-18.683,4.339-20.108c1.646-0.252,3.704-0.38,5.889-0.38
		c4.401,0,9.245,0.508,11.938,1.489c0.917,0.349,1.646,0.761,2.278,1.266c1.772,1.425,2.438,3.356,2.564,4.813
		c0.032,0.253,0.032,0.507,0.032,0.76c0,8.169-5.383,14.977-12.538,16.592c-1.045,0.252-2.155,0.379-3.262,0.379
		C80.969,71.968,77.138,69.974,74.542,67.157 M66.816,55.757c0,3.894,1.233,7.504,3.324,10.512
		c5.732,10.48,23.97,10.956,31.252,0.792c1.457-1.836,2.564-3.958,3.23-6.237c1.013-2.818,1.423-5.099,1.582-5.573
		c0.538-1.488,2.501-1.773,2.501-1.773s1.932,0.285,2.471,1.773c0.19,0.474,0.569,2.755,1.615,5.573
		c0.664,2.278,1.772,4.401,3.197,6.237c7.313,10.164,25.553,9.689,31.254-0.792c2.12-3.008,3.354-6.618,3.354-10.512
		c0-0.792-0.063-1.615-0.157-2.407c0.253-0.349-0.064-0.189,1.107-1.077l0.253-0.189c0.128-0.095,0.285-0.19,0.444-0.285
		c0.537-0.412,1.203-1.076,1.456-1.932c0.412-1.234,0.189-4.052,0.126-4.971c-3.324,0.033-8.612-0.063-12.538-0.917
		c-6.174-1.331-16.337-0.919-22.513,1.552c-6.206,2.47-8.328,3.578-8.93,3.578h-1.141h-1.139c-0.603,0-2.755-1.108-8.929-3.578
		c-6.175-2.471-16.338-2.882-22.513-1.552c-6.175,1.329-12.857,0.823-12.857,0.823s-1.708,4.211,0.698,6.047
		c0.19,0.159,0.38,0.349,0.538,0.539c0.381,0.19,0.759,0.443,1.109,0.697c0.632,0.507,1.076,0.887,1.361,1.267
		C66.879,54.143,66.816,54.965,66.816,55.757 M115.831,54.997v-0.76c0.19-1.931,1.298-4.782,4.845-6.079
		c1.899-0.698,4.781-1.14,7.853-1.331c3.546-0.253,7.315-0.159,9.975,0.222c1.867,0.253,3.419,0.888,4.653,1.805
		c7.821,5.701,3.041,22.07-10.29,23.052c-0.411,0.031-0.823,0.063-1.266,0.063c-5.036,0-9.5-2.533-12.381-6.491
		C117.099,62.597,115.831,58.956,115.831,54.997"/>
</g>
</svg>
