{
    "asset" : {
        "generator" : "Khronos glTF Blender I/O v1.1.46",
        "version" : "2.0"
    },
    "scene" : 0,
    "scenes" : [
        {
            "name" : "Scene",
            "nodes" : [
                0
            ]
        }
    ],
    "nodes" : [
        {
            "mesh" : 0,
            "name" : "brleg.003",
            "rotation" : [
                0.38976621627807617,
                -0.10075926780700684,
                -0.9146637916564941,
                -0.03633122146129608
            ],
            "translation" : [
                0.6729857921600342,
                -1.2467988729476929,
                -0.13555024564266205
            ]
        }
    ],
    "meshes" : [
        {
            "name" : "Sphere.001",
            "primitives" : [
                {
                    "attributes" : {
                        "POSITION" : 0,
                        "NORMAL" : 1,
                        "TEXCOORD_0" : 2
                    },
                    "indices" : 3
                }
            ]
        }
    ],
    "accessors" : [
        {
            "bufferView" : 0,
            "componentType" : 5126,
            "count" : 618,
            "max" : [
                0.2924598753452301,
                0.21707125008106232,
                0.059004247188568115
            ],
            "min" : [
                -0.25080054998397827,
                -0.6279248595237732,
                -0.6558173894882202
            ],
            "type" : "VEC3"
        },
        {
            "bufferView" : 1,
            "componentType" : 5126,
            "count" : 618,
            "type" : "VEC3"
        },
        {
            "bufferView" : 2,
            "componentType" : 5126,
            "count" : 618,
            "type" : "VEC2"
        },
        {
            "bufferView" : 3,
            "componentType" : 5123,
            "count" : 3348,
            "type" : "SCALAR"
        }
    ],
    "bufferViews" : [
        {
            "buffer" : 0,
            "byteLength" : 7416,
            "byteOffset" : 0
        },
        {
            "buffer" : 0,
            "byteLength" : 7416,
            "byteOffset" : 7416
        },
        {
            "buffer" : 0,
            "byteLength" : 4944,
            "byteOffset" : 14832
        },
        {
            "buffer" : 0,
            "byteLength" : 6696,
            "byteOffset" : 19776
        }
    ],
    "buffers" : [
        {
            "byteLength" : 26472,
            "uri" : "data:application/octet-stream;base64,"
        }
    ]
}
