{
    "asset" : {
        "generator" : "Khronos glTF Blender I/O v1.1.46",
        "version" : "2.0"
    },
    "scene" : 0,
    "scenes" : [
        {
            "name" : "Scene",
            "nodes" : [
                0
            ]
        }
    ],
    "nodes" : [
        {
            "mesh" : 0,
            "name" : "body",
            "rotation" : [
                0.370675653219223,
                0.3663155138492584,
                0.6070546507835388,
                0.5999142527580261
            ],
            "translation" : [
                0.11075137555599213,
                -0.571123480796814,
                -0.34631192684173584
            ]
        }
    ],
    "meshes" : [
        {
            "name" : "Cylinder.001",
            "primitives" : [
                {
                    "attributes" : {
                        "POSITION" : 0,
                        "NORMAL" : 1,
                        "TEXCOORD_0" : 2
                    },
                    "indices" : 3
                }
            ]
        }
    ],
    "accessors" : [
        {
            "bufferView" : 0,
            "componentType" : 5126,
            "count" : 1522,
            "max" : [
                0.9448919296264648,
                1.1908479928970337,
                0.8892168402671814
            ],
            "min" : [
                -0.8843057751655579,
                -1.1044907569885254,
                -0.8873110413551331
            ],
            "type" : "VEC3"
        },
        {
            "bufferView" : 1,
            "componentType" : 5126,
            "count" : 1522,
            "type" : "VEC3"
        },
        {
            "bufferView" : 2,
            "componentType" : 5126,
            "count" : 1522,
            "type" : "VEC2"
        },
        {
            "bufferView" : 3,
            "componentType" : 5123,
            "count" : 8832,
            "type" : "SCALAR"
        }
    ],
    "bufferViews" : [
        {
            "buffer" : 0,
            "byteLength" : 18264,
            "byteOffset" : 0
        },
        {
            "buffer" : 0,
            "byteLength" : 18264,
            "byteOffset" : 18264
        },
        {
            "buffer" : 0,
            "byteLength" : 12176,
            "byteOffset" : 36528
        },
        {
            "buffer" : 0,
            "byteLength" : 17664,
            "byteOffset" : 48704
        }
    ],
    "buffers" : [
        {
            "byteLength" : 66368,
            "uri" : "data:application/octet-stream;base64,"
        }
    ]
}
