{
    "asset" : {
        "generator" : "Khronos glTF Blender I/O v1.1.46",
        "version" : "2.0"
    },
    "scene" : 0,
    "scenes" : [
        {
            "name" : "Scene",
            "nodes" : [
                0
            ]
        }
    ],
    "nodes" : [
        {
            "mesh" : 0,
            "name" : "brleg",
            "rotation" : [
                0.5688709020614624,
                -0.11789220571517944,
                -0.8112362027168274,
                0.06620500981807709
            ],
            "translation" : [
                -0.4088307321071625,
                -1.3818867206573486,
                -0.8166415691375732
            ]
        }
    ],
    "meshes" : [
        {
            "name" : "Sphere.006",
            "primitives" : [
                {
                    "attributes" : {
                        "POSITION" : 0,
                        "NORMAL" : 1,
                        "TEXCOORD_0" : 2
                    },
                    "indices" : 3
                }
            ]
        }
    ],
    "accessors" : [
        {
            "bufferView" : 0,
            "componentType" : 5126,
            "count" : 618,
            "max" : [
                0.2924598753452301,
                0.21707125008106232,
                0.059004247188568115
            ],
            "min" : [
                -0.25080054998397827,
                -0.6279248595237732,
                -0.6558173894882202
            ],
            "type" : "VEC3"
        },
        {
            "bufferView" : 1,
            "componentType" : 5126,
            "count" : 618,
            "type" : "VEC3"
        },
        {
            "bufferView" : 2,
            "componentType" : 5126,
            "count" : 618,
            "type" : "VEC2"
        },
        {
            "bufferView" : 3,
            "componentType" : 5123,
            "count" : 3348,
            "type" : "SCALAR"
        }
    ],
    "bufferViews" : [
        {
            "buffer" : 0,
            "byteLength" : 7416,
            "byteOffset" : 0
        },
        {
            "buffer" : 0,
            "byteLength" : 7416,
            "byteOffset" : 7416
        },
        {
            "buffer" : 0,
            "byteLength" : 4944,
            "byteOffset" : 14832
        },
        {
            "buffer" : 0,
            "byteLength" : 6696,
            "byteOffset" : 19776
        }
    ],
    "buffers" : [
        {
            "byteLength" : 26472,
            "uri" : "data:application/octet-stream;base64,"
        }
    ]
}
