{
    "asset" : {
        "generator" : "Khronos glTF Blender I/O v1.1.46",
        "version" : "2.0"
    },
    "scene" : 0,
    "scenes" : [
        {
            "name" : "Scene",
            "nodes" : [
                0
            ]
        }
    ],
    "nodes" : [
        {
            "mesh" : 0,
            "name" : "frleg",
            "rotation" : [
                -0.037502143532037735,
                -0.045024942606687546,
                0.05644528195261955,
                0.9966846704483032
            ],
            "translation" : [
                -0.5614907741546631,
                -1.841972827911377,
                0.023817453533411026
            ]
        }
    ],
    "meshes" : [
        {
            "name" : "Sphere.005",
            "primitives" : [
                {
                    "attributes" : {
                        "POSITION" : 0,
                        "NORMAL" : 1,
                        "TEXCOORD_0" : 2
                    },
                    "indices" : 3
                }
            ]
        }
    ],
    "accessors" : [
        {
            "bufferView" : 0,
            "componentType" : 5126,
            "count" : 614,
            "max" : [
                0.35671940445899963,
                0.8605759143829346,
                0.24575264751911163
            ],
            "min" : [
                -0.25477221608161926,
                0.1562415063381195,
                -0.3164932429790497
            ],
            "type" : "VEC3"
        },
        {
            "bufferView" : 1,
            "componentType" : 5126,
            "count" : 614,
            "type" : "VEC3"
        },
        {
            "bufferView" : 2,
            "componentType" : 5126,
            "count" : 614,
            "type" : "VEC2"
        },
        {
            "bufferView" : 3,
            "componentType" : 5123,
            "count" : 3348,
            "type" : "SCALAR"
        }
    ],
    "bufferViews" : [
        {
            "buffer" : 0,
            "byteLength" : 7368,
            "byteOffset" : 0
        },
        {
            "buffer" : 0,
            "byteLength" : 7368,
            "byteOffset" : 7368
        },
        {
            "buffer" : 0,
            "byteLength" : 4912,
            "byteOffset" : 14736
        },
        {
            "buffer" : 0,
            "byteLength" : 6696,
            "byteOffset" : 19648
        }
    ],
    "buffers" : [
        {
            "byteLength" : 26344,
            "uri" : "data:application/octet-stream;base64,"
        }
    ]
}
