{
    "asset" : {
        "generator" : "Khronos glTF Blender I/O v1.1.46",
        "version" : "2.0"
    },
    "scene" : 0,
    "scenes" : [
        {
            "name" : "Scene",
            "nodes" : [
                0
            ]
        }
    ],
    "nodes" : [
        {
            "mesh" : 0,
            "name" : "head.003",
            "rotation" : [
                0,
                0.5389196872711182,
                0,
                0.8423571586608887
            ],
            "translation" : [
                -0.26833996176719666,
                1.0282312631607056,
                0.1808871328830719
            ]
        }
    ],
    "meshes" : [
        {
            "name" : "Sphere.015",
            "primitives" : [
                {
                    "attributes" : {
                        "POSITION" : 0,
                        "NORMAL" : 1,
                        "TEXCOORD_0" : 2
                    },
                    "indices" : 3
                }
            ]
        }
    ],
    "accessors" : [
        {
            "bufferView" : 0,
            "componentType" : 5126,
            "count" : 2005,
            "max" : [
                1.1100914478302002,
                1.675960659980774,
                1.2325317859649658
            ],
            "min" : [
                -1.255123496055603,
                -1.133998155593872,
                -1.232531189918518
            ],
            "type" : "VEC3"
        },
        {
            "bufferView" : 1,
            "componentType" : 5126,
            "count" : 2005,
            "type" : "VEC3"
        },
        {
            "bufferView" : 2,
            "componentType" : 5126,
            "count" : 2005,
            "type" : "VEC2"
        },
        {
            "bufferView" : 3,
            "componentType" : 5123,
            "count" : 10488,
            "type" : "SCALAR"
        }
    ],
    "bufferViews" : [
        {
            "buffer" : 0,
            "byteLength" : 24060,
            "byteOffset" : 0
        },
        {
            "buffer" : 0,
            "byteLength" : 24060,
            "byteOffset" : 24060
        },
        {
            "buffer" : 0,
            "byteLength" : 16040,
            "byteOffset" : 48120
        },
        {
            "buffer" : 0,
            "byteLength" : 20976,
            "byteOffset" : 64160
        }
    ],
    "buffers" : [
        {
            "byteLength" : 85136,
            "uri" : "data:application/octet-stream;base64,"
        }
    ]
}
