{
    "asset" : {
        "generator" : "Khronos glTF Blender I/O v1.1.46",
        "version" : "2.0"
    },
    "scene" : 0,
    "scenes" : [
        {
            "name" : "Scene",
            "nodes" : [
                0
            ]
        }
    ],
    "nodes" : [
        {
            "mesh" : 0,
            "name" : "body.002",
            "rotation" : [
                -0.0587695948779583,
                -0.012422027066349983,
                -0.014746936969459057,
                0.9980853199958801
            ],
            "translation" : [
                -0.3534180521965027,
                1.2244563102722168,
                0
            ]
        }
    ],
    "meshes" : [
        {
            "name" : "Cube.025",
            "primitives" : [
                {
                    "attributes" : {
                        "POSITION" : 0,
                        "NORMAL" : 1,
                        "TEXCOORD_0" : 2
                    },
                    "indices" : 3
                }
            ]
        }
    ],
    "accessors" : [
        {
            "bufferView" : 0,
            "componentType" : 5126,
            "count" : 3622,
            "max" : [
                1.3879235982894897,
                0.6953009366989136,
                0.7398109436035156
            ],
            "min" : [
                -1.3473578691482544,
                -1.163865566253662,
                -0.7737646102905273
            ],
            "type" : "VEC3"
        },
        {
            "bufferView" : 1,
            "componentType" : 5126,
            "count" : 3622,
            "type" : "VEC3"
        },
        {
            "bufferView" : 2,
            "componentType" : 5126,
            "count" : 3622,
            "type" : "VEC2"
        },
        {
            "bufferView" : 3,
            "componentType" : 5123,
            "count" : 20736,
            "type" : "SCALAR"
        }
    ],
    "bufferViews" : [
        {
            "buffer" : 0,
            "byteLength" : 43464,
            "byteOffset" : 0
        },
        {
            "buffer" : 0,
            "byteLength" : 43464,
            "byteOffset" : 43464
        },
        {
            "buffer" : 0,
            "byteLength" : 28976,
            "byteOffset" : 86928
        },
        {
            "buffer" : 0,
            "byteLength" : 41472,
            "byteOffset" : 115904
        }
    ],
    "buffers" : [
        {
            "byteLength" : 157376,
            "uri" : "data:application/octet-stream;base64,"
        }
    ]
}
