{
    "asset" : {
        "generator" : "Khronos glTF Blender I/O v1.1.46",
        "version" : "2.0"
    },
    "scene" : 0,
    "scenes" : [
        {
            "name" : "Scene",
            "nodes" : [
                0
            ]
        }
    ],
    "nodes" : [
        {
            "mesh" : 0,
            "name" : "head",
            "translation" : [
                -0.22641229629516602,
                2.7767391204833984,
                0
            ]
        }
    ],
    "meshes" : [
        {
            "name" : "Sphere.001",
            "primitives" : [
                {
                    "attributes" : {
                        "POSITION" : 0,
                        "NORMAL" : 1,
                        "TEXCOORD_0" : 2
                    },
                    "indices" : 3
                }
            ]
        }
    ],
    "accessors" : [
        {
            "bufferView" : 0,
            "componentType" : 5126,
            "count" : 7635,
            "max" : [
                1.351513147354126,
                1.4157527685165405,
                1.133452296257019
            ],
            "min" : [
                -1.3105939626693726,
                -1.6214646100997925,
                -1.0506294965744019
            ],
            "type" : "VEC3"
        },
        {
            "bufferView" : 1,
            "componentType" : 5126,
            "count" : 7635,
            "type" : "VEC3"
        },
        {
            "bufferView" : 2,
            "componentType" : 5126,
            "count" : 7635,
            "type" : "VEC2"
        },
        {
            "bufferView" : 3,
            "componentType" : 5123,
            "count" : 43620,
            "type" : "SCALAR"
        }
    ],
    "bufferViews" : [
        {
            "buffer" : 0,
            "byteLength" : 91620,
            "byteOffset" : 0
        },
        {
            "buffer" : 0,
            "byteLength" : 91620,
            "byteOffset" : 91620
        },
        {
            "buffer" : 0,
            "byteLength" : 61080,
            "byteOffset" : 183240
        },
        {
            "buffer" : 0,
            "byteLength" : 87240,
            "byteOffset" : 244320
        }
    ],
    "buffers" : [
        {
            "byteLength" : 331560,
            "uri" : "data:application/octet-stream;base64,"
        }
    ]
}
