{
    "asset" : {
        "generator" : "Khronos glTF Blender I/O v1.1.46",
        "version" : "2.0"
    },
    "scene" : 0,
    "scenes" : [
        {
            "name" : "Scene",
            "nodes" : [
                0
            ]
        }
    ],
    "nodes" : [
        {
            "mesh" : 0,
            "name" : "lleg",
            "rotation" : [
                0.00796742644160986,
                -0.9883860945701599,
                -0.05580171197652817,
                0.14112268388271332
            ],
            "translation" : [
                0.5329033732414246,
                -0.15647198259830475,
                0.925987184047699
            ]
        }
    ],
    "meshes" : [
        {
            "name" : "Cube.004",
            "primitives" : [
                {
                    "attributes" : {
                        "POSITION" : 0,
                        "NORMAL" : 1,
                        "TEXCOORD_0" : 2
                    },
                    "indices" : 3
                }
            ]
        }
    ],
    "accessors" : [
        {
            "bufferView" : 0,
            "componentType" : 5126,
            "count" : 127,
            "max" : [
                0.4548003077507019,
                0.6574729084968567,
                1.2586665153503418
            ],
            "min" : [
                -0.39457347989082336,
                -0.16685594618320465,
                0.030241752043366432
            ],
            "type" : "VEC3"
        },
        {
            "bufferView" : 1,
            "componentType" : 5126,
            "count" : 127,
            "type" : "VEC3"
        },
        {
            "bufferView" : 2,
            "componentType" : 5126,
            "count" : 127,
            "type" : "VEC2"
        },
        {
            "bufferView" : 3,
            "componentType" : 5123,
            "count" : 576,
            "type" : "SCALAR"
        }
    ],
    "bufferViews" : [
        {
            "buffer" : 0,
            "byteLength" : 1524,
            "byteOffset" : 0
        },
        {
            "buffer" : 0,
            "byteLength" : 1524,
            "byteOffset" : 1524
        },
        {
            "buffer" : 0,
            "byteLength" : 1016,
            "byteOffset" : 3048
        },
        {
            "buffer" : 0,
            "byteLength" : 1152,
            "byteOffset" : 4064
        }
    ],
    "buffers" : [
        {
            "byteLength" : 5216,
            "uri" : "data:application/octet-stream;base64,"
        }
    ]
}
