{
    "asset" : {
        "generator" : "Khronos glTF Blender I/O v1.1.46",
        "version" : "2.0"
    },
    "scene" : 0,
    "scenes" : [
        {
            "name" : "Scene",
            "nodes" : [
                0
            ]
        }
    ],
    "nodes" : [
        {
            "mesh" : 0,
            "name" : "lleg.003",
            "rotation" : [
                -0.8168074488639832,
                -0.5622701048851013,
                -0.11531888693571091,
                -0.058133628219366074
            ],
            "translation" : [
                -1.0352718830108643,
                0.13533630967140198,
                0.46956896781921387
            ]
        }
    ],
    "meshes" : [
        {
            "name" : "Cube.007",
            "primitives" : [
                {
                    "attributes" : {
                        "POSITION" : 0,
                        "NORMAL" : 1,
                        "TEXCOORD_0" : 2
                    },
                    "indices" : 3
                }
            ]
        }
    ],
    "accessors" : [
        {
            "bufferView" : 0,
            "componentType" : 5126,
            "count" : 127,
            "max" : [
                0.39559516310691833,
                0.3859846889972687,
                0.6847209334373474
            ],
            "min" : [
                -0.45377862453460693,
                -0.43834418058395386,
                -0.5437038540840149
            ],
            "type" : "VEC3"
        },
        {
            "bufferView" : 1,
            "componentType" : 5126,
            "count" : 127,
            "type" : "VEC3"
        },
        {
            "bufferView" : 2,
            "componentType" : 5126,
            "count" : 127,
            "type" : "VEC2"
        },
        {
            "bufferView" : 3,
            "componentType" : 5123,
            "count" : 576,
            "type" : "SCALAR"
        }
    ],
    "bufferViews" : [
        {
            "buffer" : 0,
            "byteLength" : 1524,
            "byteOffset" : 0
        },
        {
            "buffer" : 0,
            "byteLength" : 1524,
            "byteOffset" : 1524
        },
        {
            "buffer" : 0,
            "byteLength" : 1016,
            "byteOffset" : 3048
        },
        {
            "buffer" : 0,
            "byteLength" : 1152,
            "byteOffset" : 4064
        }
    ],
    "buffers" : [
        {
            "byteLength" : 5216,
            "uri" : "data:application/octet-stream;base64,"
        }
    ]
}
