{
    "asset" : {
        "generator" : "Khronos glTF Blender I/O v1.1.46",
        "version" : "2.0"
    },
    "scene" : 0,
    "scenes" : [
        {
            "name" : "Scene",
            "nodes" : [
                0
            ]
        }
    ],
    "nodes" : [
        {
            "mesh" : 0,
            "name" : "body",
            "rotation" : [
                -0.19993871450424194,
                0.3515506982803345,
                -0.6473883986473083,
                0.6460068225860596
            ],
            "translation" : [
                -0.7816005349159241,
                -0.8942740559577942,
                -0.5701166987419128
            ]
        }
    ],
    "meshes" : [
        {
            "name" : "Sphere.002",
            "primitives" : [
                {
                    "attributes" : {
                        "POSITION" : 0,
                        "NORMAL" : 1,
                        "TEXCOORD_0" : 2
                    },
                    "indices" : 3
                }
            ]
        }
    ],
    "accessors" : [
        {
            "bufferView" : 0,
            "componentType" : 5126,
            "count" : 1258,
            "max" : [
                0.912070631980896,
                2.46586275100708,
                1.2876721620559692
            ],
            "min" : [
                -1.2637367248535156,
                -0.8952504396438599,
                -0.8209711909294128
            ],
            "type" : "VEC3"
        },
        {
            "bufferView" : 1,
            "componentType" : 5126,
            "count" : 1258,
            "type" : "VEC3"
        },
        {
            "bufferView" : 2,
            "componentType" : 5126,
            "count" : 1258,
            "type" : "VEC2"
        },
        {
            "bufferView" : 3,
            "componentType" : 5123,
            "count" : 6948,
            "type" : "SCALAR"
        }
    ],
    "bufferViews" : [
        {
            "buffer" : 0,
            "byteLength" : 15096,
            "byteOffset" : 0
        },
        {
            "buffer" : 0,
            "byteLength" : 15096,
            "byteOffset" : 15096
        },
        {
            "buffer" : 0,
            "byteLength" : 10064,
            "byteOffset" : 30192
        },
        {
            "buffer" : 0,
            "byteLength" : 13896,
            "byteOffset" : 40256
        }
    ],
    "buffers" : [
        {
            "byteLength" : 54152,
            "uri" : "data:application/octet-stream;base64,"
        }
    ]
}
