{
    "asset" : {
        "generator" : "Khronos glTF Blender I/O v1.1.46",
        "version" : "2.0"
    },
    "scene" : 0,
    "scenes" : [
        {
            "name" : "Scene",
            "nodes" : [
                0
            ]
        }
    ],
    "nodes" : [
        {
            "mesh" : 0,
            "name" : "brleg",
            "rotation" : [
                -0.0014825020916759968,
                -0.15851667523384094,
                0.009233679622411728,
                0.9873120188713074
            ],
            "translation" : [
                0.2190977931022644,
                -1.5795819759368896,
                -1.9183191061019897
            ]
        }
    ],
    "meshes" : [
        {
            "name" : "Sphere.006",
            "primitives" : [
                {
                    "attributes" : {
                        "POSITION" : 0,
                        "NORMAL" : 1,
                        "TEXCOORD_0" : 2
                    },
                    "indices" : 3
                }
            ]
        }
    ],
    "accessors" : [
        {
            "bufferView" : 0,
            "componentType" : 5126,
            "count" : 747,
            "max" : [
                0.42827513813972473,
                0.7147282958030701,
                0.4337385296821594
            ],
            "min" : [
                -0.43064698576927185,
                -0.9724054932594299,
                -0.43386849761009216
            ],
            "type" : "VEC3"
        },
        {
            "bufferView" : 1,
            "componentType" : 5126,
            "count" : 747,
            "type" : "VEC3"
        },
        {
            "bufferView" : 2,
            "componentType" : 5126,
            "count" : 747,
            "type" : "VEC2"
        },
        {
            "bufferView" : 3,
            "componentType" : 5123,
            "count" : 4092,
            "type" : "SCALAR"
        }
    ],
    "bufferViews" : [
        {
            "buffer" : 0,
            "byteLength" : 8964,
            "byteOffset" : 0
        },
        {
            "buffer" : 0,
            "byteLength" : 8964,
            "byteOffset" : 8964
        },
        {
            "buffer" : 0,
            "byteLength" : 5976,
            "byteOffset" : 17928
        },
        {
            "buffer" : 0,
            "byteLength" : 8184,
            "byteOffset" : 23904
        }
    ],
    "buffers" : [
        {
            "byteLength" : 32088,
            "uri" : "data:application/octet-stream;base64,"
        }
    ]
}
