{
    "asset" : {
        "generator" : "Khronos glTF Blender I/O v1.1.46",
        "version" : "2.0"
    },
    "scene" : 0,
    "scenes" : [
        {
            "name" : "Scene",
            "nodes" : [
                0
            ]
        }
    ],
    "nodes" : [
        {
            "mesh" : 0,
            "name" : "head",
            "rotation" : [
                0,
                0.24506458640098572,
                0,
                0.9695067405700684
            ],
            "translation" : [
                -0.7105496525764465,
                1.5836551189422607,
                -0.3451992869377136
            ]
        }
    ],
    "meshes" : [
        {
            "name" : "Sphere.001",
            "primitives" : [
                {
                    "attributes" : {
                        "POSITION" : 0,
                        "NORMAL" : 1,
                        "TEXCOORD_0" : 2
                    },
                    "indices" : 3
                }
            ]
        }
    ],
    "accessors" : [
        {
            "bufferView" : 0,
            "componentType" : 5126,
            "count" : 1533,
            "max" : [
                0.6455467343330383,
                1.019073724746704,
                0.6928282976150513
            ],
            "min" : [
                -1.330284833908081,
                -1.8107727766036987,
                -0.8067376017570496
            ],
            "type" : "VEC3"
        },
        {
            "bufferView" : 1,
            "componentType" : 5126,
            "count" : 1533,
            "type" : "VEC3"
        },
        {
            "bufferView" : 2,
            "componentType" : 5126,
            "count" : 1533,
            "type" : "VEC2"
        },
        {
            "bufferView" : 3,
            "componentType" : 5123,
            "count" : 8292,
            "type" : "SCALAR"
        }
    ],
    "bufferViews" : [
        {
            "buffer" : 0,
            "byteLength" : 18396,
            "byteOffset" : 0
        },
        {
            "buffer" : 0,
            "byteLength" : 18396,
            "byteOffset" : 18396
        },
        {
            "buffer" : 0,
            "byteLength" : 12264,
            "byteOffset" : 36792
        },
        {
            "buffer" : 0,
            "byteLength" : 16584,
            "byteOffset" : 49056
        }
    ],
    "buffers" : [
        {
            "byteLength" : 65640,
            "uri" : "data:application/octet-stream;base64,"
        }
    ]
}
