{
    "asset" : {
        "generator" : "Khronos glTF Blender I/O v1.1.46",
        "version" : "2.0"
    },
    "scene" : 0,
    "scenes" : [
        {
            "name" : "Scene",
            "nodes" : [
                0
            ]
        }
    ],
    "nodes" : [
        {
            "mesh" : 0,
            "name" : "Body",
            "rotation" : [
                0.6785469055175781,
                0.37941619753837585,
                -0.2749375104904175,
                0.565709114074707
            ],
            "scale" : [
                1.5085747241973877,
                1.5085747241973877,
                1.5085748434066772
            ],
            "translation" : [
                2.944406032562256,
                0,
                0
            ]
        }
    ],
    "meshes" : [
        {
            "name" : "Cylinder",
            "primitives" : [
                {
                    "attributes" : {
                        "POSITION" : 0,
                        "NORMAL" : 1,
                        "TEXCOORD_0" : 2
                    },
                    "indices" : 3
                }
            ]
        }
    ],
    "accessors" : [
        {
            "bufferView" : 0,
            "componentType" : 5126,
            "count" : 1260,
            "max" : [
                1.0376884937286377,
                0.4406276047229767,
                1.1183851957321167
            ],
            "min" : [
                -1.4068082571029663,
                -2.3798351287841797,
                -1.2398595809936523
            ],
            "type" : "VEC3"
        },
        {
            "bufferView" : 1,
            "componentType" : 5126,
            "count" : 1260,
            "type" : "VEC3"
        },
        {
            "bufferView" : 2,
            "componentType" : 5126,
            "count" : 1260,
            "type" : "VEC2"
        },
        {
            "bufferView" : 3,
            "componentType" : 5123,
            "count" : 6336,
            "type" : "SCALAR"
        }
    ],
    "bufferViews" : [
        {
            "buffer" : 0,
            "byteLength" : 15120,
            "byteOffset" : 0
        },
        {
            "buffer" : 0,
            "byteLength" : 15120,
            "byteOffset" : 15120
        },
        {
            "buffer" : 0,
            "byteLength" : 10080,
            "byteOffset" : 30240
        },
        {
            "buffer" : 0,
            "byteLength" : 12672,
            "byteOffset" : 40320
        }
    ],
    "buffers" : [
        {
            "byteLength" : 52992,
            "uri" : "data:application/octet-stream;base64,"
        }
    ]
}
