{
    "asset" : {
        "generator" : "Khronos glTF Blender I/O v1.1.46",
        "version" : "2.0"
    },
    "scene" : 0,
    "scenes" : [
        {
            "name" : "Scene",
            "nodes" : [
                0
            ]
        }
    ],
    "nodes" : [
        {
            "mesh" : 0,
            "name" : "Tail",
            "rotation" : [
                0,
                -0.5230062007904053,
                0,
                -0.852328896522522
            ],
            "scale" : [
                0.36674243211746216,
                0.36674243211746216,
                0.36674243211746216
            ],
            "translation" : [
                0.9733027219772339,
                2.0288639068603516,
                -1.1334600448608398
            ]
        }
    ],
    "meshes" : [
        {
            "name" : "Cube.001",
            "primitives" : [
                {
                    "attributes" : {
                        "POSITION" : 0,
                        "NORMAL" : 1,
                        "TEXCOORD_0" : 2
                    },
                    "indices" : 3
                }
            ]
        }
    ],
    "accessors" : [
        {
            "bufferView" : 0,
            "componentType" : 5126,
            "count" : 1335,
            "max" : [
                4.656420707702637,
                2.853634834289551,
                8.528899192810059
            ],
            "min" : [
                -6.294003486633301,
                -10.450075149536133,
                -3.676377773284912
            ],
            "type" : "VEC3"
        },
        {
            "bufferView" : 1,
            "componentType" : 5126,
            "count" : 1335,
            "type" : "VEC3"
        },
        {
            "bufferView" : 2,
            "componentType" : 5126,
            "count" : 1335,
            "type" : "VEC2"
        },
        {
            "bufferView" : 3,
            "componentType" : 5123,
            "count" : 7152,
            "type" : "SCALAR"
        }
    ],
    "bufferViews" : [
        {
            "buffer" : 0,
            "byteLength" : 16020,
            "byteOffset" : 0
        },
        {
            "buffer" : 0,
            "byteLength" : 16020,
            "byteOffset" : 16020
        },
        {
            "buffer" : 0,
            "byteLength" : 10680,
            "byteOffset" : 32040
        },
        {
            "buffer" : 0,
            "byteLength" : 14304,
            "byteOffset" : 42720
        }
    ],
    "buffers" : [
        {
            "byteLength" : 57024,
            "uri" : "data:application/octet-stream;base64,"
        }
    ]
}
