{
    "asset" : {
        "generator" : "Khronos glTF Blender I/O v1.1.46",
        "version" : "2.0"
    },
    "scene" : 0,
    "scenes" : [
        {
            "name" : "Scene",
            "nodes" : [
                0
            ]
        }
    ],
    "nodes" : [
        {
            "mesh" : 0,
            "name" : "head",
            "rotation" : [
                -0.5279163122177124,
                0.3495275676250458,
                0.28210023045539856,
                0.7208012342453003
            ],
            "scale" : [
                0.6038484573364258,
                0.6038484573364258,
                0.6038484573364258
            ],
            "translation" : [
                4.044543743133545,
                -0.07683169841766357,
                1.3653182983398438
            ]
        }
    ],
    "meshes" : [
        {
            "name" : "Circle.002",
            "primitives" : [
                {
                    "attributes" : {
                        "POSITION" : 0,
                        "NORMAL" : 1,
                        "TEXCOORD_0" : 2
                    },
                    "indices" : 3
                }
            ]
        }
    ],
    "accessors" : [
        {
            "bufferView" : 0,
            "componentType" : 5126,
            "count" : 1733,
            "max" : [
                3.174337148666382,
                2.2908217906951904,
                3.07759690284729
            ],
            "min" : [
                -2.82936954498291,
                -1.4059734344482422,
                -3.291053056716919
            ],
            "type" : "VEC3"
        },
        {
            "bufferView" : 1,
            "componentType" : 5126,
            "count" : 1733,
            "type" : "VEC3"
        },
        {
            "bufferView" : 2,
            "componentType" : 5126,
            "count" : 1733,
            "type" : "VEC2"
        },
        {
            "bufferView" : 3,
            "componentType" : 5123,
            "count" : 9594,
            "type" : "SCALAR"
        }
    ],
    "bufferViews" : [
        {
            "buffer" : 0,
            "byteLength" : 20796,
            "byteOffset" : 0
        },
        {
            "buffer" : 0,
            "byteLength" : 20796,
            "byteOffset" : 20796
        },
        {
            "buffer" : 0,
            "byteLength" : 13864,
            "byteOffset" : 41592
        },
        {
            "buffer" : 0,
            "byteLength" : 19188,
            "byteOffset" : 55456
        }
    ],
    "buffers" : [
        {
            "byteLength" : 74644,
            "uri" : "data:application/octet-stream;base64,"
        }
    ]
}
