{
    "asset" : {
        "generator" : "Khronos glTF Blender I/O v1.1.46",
        "version" : "2.0"
    },
    "scene" : 0,
    "scenes" : [
        {
            "extras" : {
                "glTF2ExportSettings" : {
                    "export_apply" : 0,
                    "export_extras" : 1,
                    "export_format" : "GLTF_EMBEDDED",
                    "export_selected" : 1
                }
            },
            "name" : "Scene",
            "nodes" : [
                0,
                1,
                2
            ]
        }
    ],
    "nodes" : [
        {
            "mesh" : 0,
            "name" : "head",
            "rotation" : [
                -0.5279163122177124,
                0.3495275676250458,
                0.28210023045539856,
                0.7208012342453003
            ],
            "scale" : [
                0.6038484573364258,
                0.6038484573364258,
                0.6038484573364258
            ],
            "translation" : [
                4.044543743133545,
                -0.07683169841766357,
                1.3653182983398438
            ]
        },
        {
            "mesh" : 1,
            "name" : "head.002",
            "rotation" : [
                0.736354649066925,
                0.24375760555267334,
                -0.3368421494960785,
                0.5337615609169006
            ],
            "scale" : [
                -0.6038484573364258,
                -0.6038484573364258,
                -0.603848397731781
            ],
            "translation" : [
                4.478465557098389,
                1.4331111907958984,
                -0.038540758192539215
            ]
        },
        {
            "mesh" : 2,
            "name" : "head.003",
            "rotation" : [
                -0.5279163122177124,
                0.3495275676250458,
                0.28210023045539856,
                0.7208012342453003
            ],
            "scale" : [
                0.6038484573364258,
                0.6038484573364258,
                0.6038484573364258
            ],
            "translation" : [
                4.044543743133545,
                -0.07683169841766357,
                1.3653182983398438
            ]
        }
    ],
    "meshes" : [
        {
            "name" : "Circle.003",
            "primitives" : [
                {
                    "attributes" : {
                        "POSITION" : 0,
                        "NORMAL" : 1,
                        "TEXCOORD_0" : 2
                    },
                    "indices" : 3
                }
            ]
        },
        {
            "name" : "Circle.004",
            "primitives" : [
                {
                    "attributes" : {
                        "POSITION" : 4,
                        "NORMAL" : 5,
                        "TEXCOORD_0" : 6
                    },
                    "indices" : 7
                }
            ]
        },
        {
            "name" : "Circle.006",
            "primitives" : [
                {
                    "attributes" : {
                        "POSITION" : 8,
                        "NORMAL" : 9,
                        "TEXCOORD_0" : 10
                    },
                    "indices" : 7
                }
            ]
        }
    ],
    "accessors" : [
        {
            "bufferView" : 0,
            "componentType" : 5126,
            "count" : 1431,
            "max" : [
                3.028294086456299,
                2.2908217906951904,
                2.438459634780884
            ],
            "min" : [
                -2.746835231781006,
                -1.4059734344482422,
                -3.291053056716919
            ],
            "type" : "VEC3"
        },
        {
            "bufferView" : 1,
            "componentType" : 5126,
            "count" : 1431,
            "type" : "VEC3"
        },
        {
            "bufferView" : 2,
            "componentType" : 5126,
            "count" : 1431,
            "type" : "VEC2"
        },
        {
            "bufferView" : 3,
            "componentType" : 5123,
            "count" : 8100,
            "type" : "SCALAR"
        },
        {
            "bufferView" : 4,
            "componentType" : 5126,
            "count" : 157,
            "max" : [
                1.0755072832107544,
                0.8081201314926147,
                0.9671907424926758
            ],
            "min" : [
                -0.6711645126342773,
                -0.5214119553565979,
                -1.4514110088348389
            ],
            "type" : "VEC3"
        },
        {
            "bufferView" : 5,
            "componentType" : 5126,
            "count" : 157,
            "type" : "VEC3"
        },
        {
            "bufferView" : 6,
            "componentType" : 5126,
            "count" : 157,
            "type" : "VEC2"
        },
        {
            "bufferView" : 7,
            "componentType" : 5123,
            "count" : 732,
            "type" : "SCALAR"
        },
        {
            "bufferView" : 8,
            "componentType" : 5126,
            "count" : 157,
            "max" : [
                -1.0826977491378784,
                2.1474547386169434,
                3.07759690284729
            ],
            "min" : [
                -2.82936954498291,
                0.8179226517677307,
                0.6589951515197754
            ],
            "type" : "VEC3"
        },
        {
            "bufferView" : 9,
            "componentType" : 5126,
            "count" : 157,
            "type" : "VEC3"
        },
        {
            "bufferView" : 10,
            "componentType" : 5126,
            "count" : 157,
            "type" : "VEC2"
        }
    ],
    "bufferViews" : [
        {
            "buffer" : 0,
            "byteLength" : 17172,
            "byteOffset" : 0
        },
        {
            "buffer" : 0,
            "byteLength" : 17172,
            "byteOffset" : 17172
        },
        {
            "buffer" : 0,
            "byteLength" : 11448,
            "byteOffset" : 34344
        },
        {
            "buffer" : 0,
            "byteLength" : 16200,
            "byteOffset" : 45792
        },
        {
            "buffer" : 0,
            "byteLength" : 1884,
            "byteOffset" : 61992
        },
        {
            "buffer" : 0,
            "byteLength" : 1884,
            "byteOffset" : 63876
        },
        {
            "buffer" : 0,
            "byteLength" : 1256,
            "byteOffset" : 65760
        },
        {
            "buffer" : 0,
            "byteLength" : 1464,
            "byteOffset" : 67016
        },
        {
            "buffer" : 0,
            "byteLength" : 1884,
            "byteOffset" : 68480
        },
        {
            "buffer" : 0,
            "byteLength" : 1884,
            "byteOffset" : 70364
        },
        {
            "buffer" : 0,
            "byteLength" : 1256,
            "byteOffset" : 72248
        }
    ],
    "buffers" : [
        {
            "byteLength" : 73504,
            "uri" : "data:application/octet-stream;base64,"
        }
    ]
}
