{
    "asset" : {
        "generator" : "Khronos glTF Blender I/O v1.1.46",
        "version" : "2.0"
    },
    "scene" : 0,
    "scenes" : [
        {
            "name" : "Scene",
            "nodes" : [
                0
            ]
        }
    ],
    "nodes" : [
        {
            "mesh" : 0,
            "name" : "head",
            "rotation" : [
                0.6785469055175781,
                0.37941619753837585,
                -0.2749375104904175,
                0.565709114074707
            ],
            "scale" : [
                1.5085747241973877,
                1.5085747241973877,
                1.5085748434066772
            ],
            "translation" : [
                2.944406032562256,
                0,
                0
            ]
        }
    ],
    "meshes" : [
        {
            "name" : "Cylinder.002",
            "primitives" : [
                {
                    "attributes" : {
                        "POSITION" : 0,
                        "NORMAL" : 1,
                        "TEXCOORD_0" : 2
                    },
                    "indices" : 3
                }
            ]
        }
    ],
    "accessors" : [
        {
            "bufferView" : 0,
            "componentType" : 5126,
            "count" : 833,
            "max" : [
                0.9085032343864441,
                1.479009985923767,
                1.1149097681045532
            ],
            "min" : [
                -1.4068082571029663,
                0.41634806990623474,
                -1.2183934450149536
            ],
            "type" : "VEC3"
        },
        {
            "bufferView" : 1,
            "componentType" : 5126,
            "count" : 833,
            "type" : "VEC3"
        },
        {
            "bufferView" : 2,
            "componentType" : 5126,
            "count" : 833,
            "type" : "VEC2"
        },
        {
            "bufferView" : 3,
            "componentType" : 5123,
            "count" : 4800,
            "type" : "SCALAR"
        }
    ],
    "bufferViews" : [
        {
            "buffer" : 0,
            "byteLength" : 9996,
            "byteOffset" : 0
        },
        {
            "buffer" : 0,
            "byteLength" : 9996,
            "byteOffset" : 9996
        },
        {
            "buffer" : 0,
            "byteLength" : 6664,
            "byteOffset" : 19992
        },
        {
            "buffer" : 0,
            "byteLength" : 9600,
            "byteOffset" : 26656
        }
    ],
    "buffers" : [
        {
            "byteLength" : 36256,
            "uri" : "data:application/octet-stream;base64,"
        }
    ]
}
