{
    "asset" : {
        "generator" : "Khronos glTF Blender I/O v1.1.46",
        "version" : "2.0"
    },
    "scene" : 0,
    "scenes" : [
        {
            "extras" : {
                "glTF2ExportSettings" : {
                    "export_apply" : 0,
                    "export_extras" : 1,
                    "export_format" : "GLTF_EMBEDDED",
                    "export_selected" : 1
                }
            },
            "name" : "Scene",
            "nodes" : [
                0,
                1,
                2
            ]
        }
    ],
    "nodes" : [
        {
            "mesh" : 0,
            "name" : "head.003",
            "rotation" : [
                -0.5279163122177124,
                0.3495275676250458,
                0.28210023045539856,
                0.7208012342453003
            ],
            "scale" : [
                0.6038484573364258,
                0.6038484573364258,
                0.6038484573364258
            ],
            "translation" : [
                2.902357578277588,
                1.3245221376419067,
                2.2068145275115967
            ]
        },
        {
            "mesh" : 1,
            "name" : "head.002",
            "rotation" : [
                -0.5279163122177124,
                0.3495275676250458,
                0.28210023045539856,
                0.7208012342453003
            ],
            "scale" : [
                0.6038484573364258,
                0.6038484573364258,
                0.6038484573364258
            ],
            "translation" : [
                4.478464126586914,
                1.405822992324829,
                0.0408480167388916
            ]
        },
        {
            "mesh" : 2,
            "name" : "head.004",
            "rotation" : [
                -0.5279163122177124,
                0.3495275676250458,
                0.28210023045539856,
                0.7208012342453003
            ],
            "scale" : [
                0.6038484573364258,
                0.6038484573364258,
                0.6038484573364258
            ],
            "translation" : [
                2.902357578277588,
                1.3245221376419067,
                2.2068145275115967
            ]
        }
    ],
    "meshes" : [
        {
            "name" : "Circle.006",
            "primitives" : [
                {
                    "attributes" : {
                        "POSITION" : 0,
                        "NORMAL" : 1,
                        "TEXCOORD_0" : 2
                    },
                    "indices" : 3
                }
            ]
        },
        {
            "name" : "Circle.002",
            "primitives" : [
                {
                    "attributes" : {
                        "POSITION" : 4,
                        "NORMAL" : 5,
                        "TEXCOORD_0" : 6
                    },
                    "indices" : 7
                }
            ]
        },
        {
            "name" : "Circle.005",
            "primitives" : [
                {
                    "attributes" : {
                        "POSITION" : 8,
                        "NORMAL" : 9,
                        "TEXCOORD_0" : 10
                    },
                    "indices" : 11
                }
            ]
        }
    ],
    "accessors" : [
        {
            "bufferView" : 0,
            "componentType" : 5126,
            "count" : 1475,
            "max" : [
                5.186497688293457,
                0.9514883160591125,
                0.328053742647171
            ],
            "min" : [
                -0.588630199432373,
                -2.7453064918518066,
                -5.401458263397217
            ],
            "type" : "VEC3"
        },
        {
            "bufferView" : 1,
            "componentType" : 5126,
            "count" : 1475,
            "type" : "VEC3"
        },
        {
            "bufferView" : 2,
            "componentType" : 5126,
            "count" : 1475,
            "type" : "VEC2"
        },
        {
            "bufferView" : 3,
            "componentType" : 5123,
            "count" : 8058,
            "type" : "SCALAR"
        },
        {
            "bufferView" : 4,
            "componentType" : 5126,
            "count" : 161,
            "max" : [
                0.6464033126831055,
                0.8350380063056946,
                1.0163593292236328
            ],
            "min" : [
                -1.0502359867095947,
                -0.5016158819198608,
                -1.4478294849395752
            ],
            "type" : "VEC3"
        },
        {
            "bufferView" : 5,
            "componentType" : 5126,
            "count" : 161,
            "type" : "VEC3"
        },
        {
            "bufferView" : 6,
            "componentType" : 5126,
            "count" : 161,
            "type" : "VEC2"
        },
        {
            "bufferView" : 7,
            "componentType" : 5123,
            "count" : 768,
            "type" : "SCALAR"
        },
        {
            "bufferView" : 8,
            "componentType" : 5126,
            "count" : 161,
            "max" : [
                1.0755072832107544,
                0.8081201314926147,
                0.9671907424926758
            ],
            "min" : [
                -0.6711645126342773,
                -0.5214119553565979,
                -1.4514110088348389
            ],
            "type" : "VEC3"
        },
        {
            "bufferView" : 9,
            "componentType" : 5126,
            "count" : 161,
            "type" : "VEC3"
        },
        {
            "bufferView" : 10,
            "componentType" : 5126,
            "count" : 161,
            "type" : "VEC2"
        },
        {
            "bufferView" : 11,
            "componentType" : 5123,
            "count" : 768,
            "type" : "SCALAR"
        }
    ],
    "bufferViews" : [
        {
            "buffer" : 0,
            "byteLength" : 17700,
            "byteOffset" : 0
        },
        {
            "buffer" : 0,
            "byteLength" : 17700,
            "byteOffset" : 17700
        },
        {
            "buffer" : 0,
            "byteLength" : 11800,
            "byteOffset" : 35400
        },
        {
            "buffer" : 0,
            "byteLength" : 16116,
            "byteOffset" : 47200
        },
        {
            "buffer" : 0,
            "byteLength" : 1932,
            "byteOffset" : 63316
        },
        {
            "buffer" : 0,
            "byteLength" : 1932,
            "byteOffset" : 65248
        },
        {
            "buffer" : 0,
            "byteLength" : 1288,
            "byteOffset" : 67180
        },
        {
            "buffer" : 0,
            "byteLength" : 1536,
            "byteOffset" : 68468
        },
        {
            "buffer" : 0,
            "byteLength" : 1932,
            "byteOffset" : 70004
        },
        {
            "buffer" : 0,
            "byteLength" : 1932,
            "byteOffset" : 71936
        },
        {
            "buffer" : 0,
            "byteLength" : 1288,
            "byteOffset" : 73868
        },
        {
            "buffer" : 0,
            "byteLength" : 1536,
            "byteOffset" : 75156
        }
    ],
    "buffers" : [
        {
            "byteLength" : 76692,
            "uri" : "data:application/octet-stream;base64,"
        }
    ]
}
