{
    "asset" : {
        "generator" : "Khronos glTF Blender I/O v1.1.46",
        "version" : "2.0"
    },
    "scene" : 0,
    "scenes" : [
        {
            "name" : "Scene",
            "nodes" : [
                0
            ]
        }
    ],
    "nodes" : [
        {
            "mesh" : 0,
            "name" : "rfin",
            "rotation" : [
                0.7283811569213867,
                0.03885390982031822,
                -0.0759875699877739,
                0.679836094379425
            ],
            "translation" : [
                -1.1923877000808716,
                0.6090189218521118,
                0.7151436805725098
            ]
        }
    ],
    "meshes" : [
        {
            "name" : "Cube",
            "primitives" : [
                {
                    "attributes" : {
                        "POSITION" : 0,
                        "NORMAL" : 1,
                        "TEXCOORD_0" : 2
                    },
                    "indices" : 3
                }
            ]
        }
    ],
    "accessors" : [
        {
            "bufferView" : 0,
            "componentType" : 5126,
            "count" : 702,
            "max" : [
                1.4354454278945923,
                0.6792859435081482,
                0.3837200105190277
            ],
            "min" : [
                -2.460463762283325,
                -2.790452718734741,
                -0.40376031398773193
            ],
            "type" : "VEC3"
        },
        {
            "bufferView" : 1,
            "componentType" : 5126,
            "count" : 702,
            "type" : "VEC3"
        },
        {
            "bufferView" : 2,
            "componentType" : 5126,
            "count" : 702,
            "type" : "VEC2"
        },
        {
            "bufferView" : 3,
            "componentType" : 5123,
            "count" : 3888,
            "type" : "SCALAR"
        }
    ],
    "bufferViews" : [
        {
            "buffer" : 0,
            "byteLength" : 8424,
            "byteOffset" : 0
        },
        {
            "buffer" : 0,
            "byteLength" : 8424,
            "byteOffset" : 8424
        },
        {
            "buffer" : 0,
            "byteLength" : 5616,
            "byteOffset" : 16848
        },
        {
            "buffer" : 0,
            "byteLength" : 7776,
            "byteOffset" : 22464
        }
    ],
    "buffers" : [
        {
            "byteLength" : 30240,
            "uri" : "data:application/octet-stream;base64,"
        }
    ]
}
