{
    "asset" : {
        "generator" : "Khronos glTF Blender I/O v1.1.46",
        "version" : "2.0"
    },
    "scene" : 0,
    "scenes" : [
        {
            "name" : "Scene",
            "nodes" : [
                0
            ]
        }
    ],
    "nodes" : [
        {
            "mesh" : 0,
            "name" : "bfin.002",
            "rotation" : [
                0.5304259657859802,
                0.5009213089942932,
                -0.48295050859451294,
                0.48423680663108826
            ],
            "scale" : [
                1.124412178993225,
                1.124411940574646,
                1.124411940574646
            ],
            "translation" : [
                -0.20909108221530914,
                1.9008573293685913,
                -0.2567497193813324
            ]
        }
    ],
    "meshes" : [
        {
            "name" : "Cube.006",
            "primitives" : [
                {
                    "attributes" : {
                        "POSITION" : 0,
                        "NORMAL" : 1,
                        "TEXCOORD_0" : 2
                    },
                    "indices" : 3
                }
            ]
        }
    ],
    "accessors" : [
        {
            "bufferView" : 0,
            "componentType" : 5126,
            "count" : 134,
            "max" : [
                0.3900872468948364,
                0.2957373857498169,
                0.2989247441291809
            ],
            "min" : [
                -0.39076441526412964,
                0.12319164723157883,
                -0.4538251459598541
            ],
            "type" : "VEC3"
        },
        {
            "bufferView" : 1,
            "componentType" : 5126,
            "count" : 134,
            "type" : "VEC3"
        },
        {
            "bufferView" : 2,
            "componentType" : 5126,
            "count" : 134,
            "type" : "VEC2"
        },
        {
            "bufferView" : 3,
            "componentType" : 5123,
            "count" : 624,
            "type" : "SCALAR"
        }
    ],
    "bufferViews" : [
        {
            "buffer" : 0,
            "byteLength" : 1608,
            "byteOffset" : 0
        },
        {
            "buffer" : 0,
            "byteLength" : 1608,
            "byteOffset" : 1608
        },
        {
            "buffer" : 0,
            "byteLength" : 1072,
            "byteOffset" : 3216
        },
        {
            "buffer" : 0,
            "byteLength" : 1248,
            "byteOffset" : 4288
        }
    ],
    "buffers" : [
        {
            "byteLength" : 5536,
            "uri" : "data:application/octet-stream;base64,"
        }
    ]
}
