{
    "asset" : {
        "generator" : "Khronos glTF Blender I/O v1.1.46",
        "version" : "2.0"
    },
    "scene" : 0,
    "scenes" : [
        {
            "name" : "Scene",
            "nodes" : [
                0
            ]
        }
    ],
    "nodes" : [
        {
            "mesh" : 0,
            "name" : "RightLeg_old.002",
            "rotation" : [
                -0.008271501399576664,
                0.0017958366079255939,
                -0.029458198696374893,
                0.9995301961898804
            ],
            "translation" : [
                -0.6530432105064392,
                -2.4432129859924316,
                0
            ]
        }
    ],
    "meshes" : [
        {
            "name" : "Cube.018",
            "primitives" : [
                {
                    "attributes" : {
                        "POSITION" : 0,
                        "NORMAL" : 1,
                        "TEXCOORD_0" : 2
                    },
                    "indices" : 3
                }
            ]
        }
    ],
    "accessors" : [
        {
            "bufferView" : 0,
            "componentType" : 5126,
            "count" : 1830,
            "max" : [
                0.7015025019645691,
                1.7343908548355103,
                0.8464133143424988
            ],
            "min" : [
                -0.7390985488891602,
                -1.6899183988571167,
                -0.6691532731056213
            ],
            "type" : "VEC3"
        },
        {
            "bufferView" : 1,
            "componentType" : 5126,
            "count" : 1830,
            "type" : "VEC3"
        },
        {
            "bufferView" : 2,
            "componentType" : 5126,
            "count" : 1830,
            "type" : "VEC2"
        },
        {
            "bufferView" : 3,
            "componentType" : 5123,
            "count" : 9744,
            "type" : "SCALAR"
        }
    ],
    "bufferViews" : [
        {
            "buffer" : 0,
            "byteLength" : 21960,
            "byteOffset" : 0
        },
        {
            "buffer" : 0,
            "byteLength" : 21960,
            "byteOffset" : 21960
        },
        {
            "buffer" : 0,
            "byteLength" : 14640,
            "byteOffset" : 43920
        },
        {
            "buffer" : 0,
            "byteLength" : 19488,
            "byteOffset" : 58560
        }
    ],
    "buffers" : [
        {
            "byteLength" : 78048,
            "uri" : "data:application/octet-stream;base64,"
        }
    ]
}
