{
    "asset" : {
        "generator" : "Khronos glTF Blender I/O v1.1.46",
        "version" : "2.0"
    },
    "scene" : 0,
    "scenes" : [
        {
            "name" : "Scene",
            "nodes" : [
                0
            ]
        }
    ],
    "nodes" : [
        {
            "mesh" : 0,
            "name" : "RightArm_old.002",
            "rotation" : [
                0.006021525710821152,
                -0.0006063590990379453,
                -0.0671338140964508,
                0.9977256059646606
            ],
            "translation" : [
                -2.001915693283081,
                0.70953768491745,
                0
            ]
        }
    ],
    "meshes" : [
        {
            "name" : "Cube.019",
            "primitives" : [
                {
                    "attributes" : {
                        "POSITION" : 0,
                        "NORMAL" : 1,
                        "TEXCOORD_0" : 2
                    },
                    "indices" : 3
                }
            ]
        }
    ],
    "accessors" : [
        {
            "bufferView" : 0,
            "componentType" : 5126,
            "count" : 1534,
            "max" : [
                0.8211866021156311,
                1.624847173690796,
                0.702938973903656
            ],
            "min" : [
                -0.7834975123405457,
                -1.7355077266693115,
                -0.6878892779350281
            ],
            "type" : "VEC3"
        },
        {
            "bufferView" : 1,
            "componentType" : 5126,
            "count" : 1534,
            "type" : "VEC3"
        },
        {
            "bufferView" : 2,
            "componentType" : 5126,
            "count" : 1534,
            "type" : "VEC2"
        },
        {
            "bufferView" : 3,
            "componentType" : 5123,
            "count" : 8064,
            "type" : "SCALAR"
        }
    ],
    "bufferViews" : [
        {
            "buffer" : 0,
            "byteLength" : 18408,
            "byteOffset" : 0
        },
        {
            "buffer" : 0,
            "byteLength" : 18408,
            "byteOffset" : 18408
        },
        {
            "buffer" : 0,
            "byteLength" : 12272,
            "byteOffset" : 36816
        },
        {
            "buffer" : 0,
            "byteLength" : 16128,
            "byteOffset" : 49088
        }
    ],
    "buffers" : [
        {
            "byteLength" : 65216,
            "uri" : "data:application/octet-stream;base64,"
        }
    ]
}
