{
    "asset" : {
        "generator" : "Khronos glTF Blender I/O v1.1.46",
        "version" : "2.0"
    },
    "scene" : 0,
    "scenes" : [
        {
            "name" : "Scene",
            "nodes" : [
                0
            ]
        }
    ],
    "nodes" : [
        {
            "mesh" : 0,
            "name" : "LeftArm_old.002",
            "rotation" : [
                0.019695045426487923,
                -0.00518429558724165,
                0.12321554869413376,
                0.9921709299087524
            ],
            "translation" : [
                2.253896713256836,
                0.70953768491745,
                0
            ]
        }
    ],
    "meshes" : [
        {
            "name" : "Cube.021",
            "primitives" : [
                {
                    "attributes" : {
                        "POSITION" : 0,
                        "NORMAL" : 1,
                        "TEXCOORD_0" : 2
                    },
                    "indices" : 3
                }
            ]
        }
    ],
    "accessors" : [
        {
            "bufferView" : 0,
            "componentType" : 5126,
            "count" : 1534,
            "max" : [
                0.821186900138855,
                1.6248466968536377,
                0.7029387950897217
            ],
            "min" : [
                -0.7834978103637695,
                -1.7355072498321533,
                -0.687889039516449
            ],
            "type" : "VEC3"
        },
        {
            "bufferView" : 1,
            "componentType" : 5126,
            "count" : 1534,
            "type" : "VEC3"
        },
        {
            "bufferView" : 2,
            "componentType" : 5126,
            "count" : 1534,
            "type" : "VEC2"
        },
        {
            "bufferView" : 3,
            "componentType" : 5123,
            "count" : 8064,
            "type" : "SCALAR"
        }
    ],
    "bufferViews" : [
        {
            "buffer" : 0,
            "byteLength" : 18408,
            "byteOffset" : 0
        },
        {
            "buffer" : 0,
            "byteLength" : 18408,
            "byteOffset" : 18408
        },
        {
            "buffer" : 0,
            "byteLength" : 12272,
            "byteOffset" : 36816
        },
        {
            "buffer" : 0,
            "byteLength" : 16128,
            "byteOffset" : 49088
        }
    ],
    "buffers" : [
        {
            "byteLength" : 65216,
            "uri" : "data:application/octet-stream;base64,"
        }
    ]
}
