{
    "asset" : {
        "generator" : "Khronos glTF Blender I/O v1.1.46",
        "version" : "2.0"
    },
    "scene" : 0,
    "scenes" : [
        {
            "name" : "Scene",
            "nodes" : [
                0
            ]
        }
    ],
    "nodes" : [
        {
            "mesh" : 0,
            "name" : "Body_old.002",
            "translation" : [
                0.12019491195678711,
                0.6271352767944336,
                0
            ]
        }
    ],
    "meshes" : [
        {
            "name" : "Cube.023",
            "primitives" : [
                {
                    "attributes" : {
                        "POSITION" : 0,
                        "NORMAL" : 1,
                        "TEXCOORD_0" : 2
                    },
                    "indices" : 3
                }
            ]
        }
    ],
    "accessors" : [
        {
            "bufferView" : 0,
            "componentType" : 5126,
            "count" : 1710,
            "max" : [
                1.4021941423416138,
                1.5838309526443481,
                0.9649472236633301
            ],
            "min" : [
                -1.4231948852539062,
                -1.7695585489273071,
                -0.8932191133499146
            ],
            "type" : "VEC3"
        },
        {
            "bufferView" : 1,
            "componentType" : 5126,
            "count" : 1710,
            "type" : "VEC3"
        },
        {
            "bufferView" : 2,
            "componentType" : 5126,
            "count" : 1710,
            "type" : "VEC2"
        },
        {
            "bufferView" : 3,
            "componentType" : 5123,
            "count" : 9072,
            "type" : "SCALAR"
        }
    ],
    "bufferViews" : [
        {
            "buffer" : 0,
            "byteLength" : 20520,
            "byteOffset" : 0
        },
        {
            "buffer" : 0,
            "byteLength" : 20520,
            "byteOffset" : 20520
        },
        {
            "buffer" : 0,
            "byteLength" : 13680,
            "byteOffset" : 41040
        },
        {
            "buffer" : 0,
            "byteLength" : 18144,
            "byteOffset" : 54720
        }
    ],
    "buffers" : [
        {
            "byteLength" : 72864,
            "uri" : "data:application/octet-stream;base64,"
        }
    ]
}
