{
    "asset" : {
        "generator" : "Khronos glTF Blender I/O v1.1.46",
        "version" : "2.0"
    },
    "scene" : 0,
    "scenes" : [
        {
            "name" : "Scene",
            "nodes" : [
                0
            ]
        }
    ],
    "nodes" : [
        {
            "mesh" : 0,
            "name" : "LeftLeg_old.002",
            "rotation" : [
                -0.002635609358549118,
                -0.017660798504948616,
                0.011049241758883,
                0.9997795224189758
            ],
            "translation" : [
                0.7851079702377319,
                -2.4432129859924316,
                0
            ]
        }
    ],
    "meshes" : [
        {
            "name" : "Cube.020",
            "primitives" : [
                {
                    "attributes" : {
                        "POSITION" : 0,
                        "NORMAL" : 1,
                        "TEXCOORD_0" : 2
                    },
                    "indices" : 3
                }
            ]
        }
    ],
    "accessors" : [
        {
            "bufferView" : 0,
            "componentType" : 5126,
            "count" : 1830,
            "max" : [
                0.7015029191970825,
                1.7343918085098267,
                0.8464131951332092
            ],
            "min" : [
                -0.7390989661216736,
                -1.689919352531433,
                -0.6691532135009766
            ],
            "type" : "VEC3"
        },
        {
            "bufferView" : 1,
            "componentType" : 5126,
            "count" : 1830,
            "type" : "VEC3"
        },
        {
            "bufferView" : 2,
            "componentType" : 5126,
            "count" : 1830,
            "type" : "VEC2"
        },
        {
            "bufferView" : 3,
            "componentType" : 5123,
            "count" : 9744,
            "type" : "SCALAR"
        }
    ],
    "bufferViews" : [
        {
            "buffer" : 0,
            "byteLength" : 21960,
            "byteOffset" : 0
        },
        {
            "buffer" : 0,
            "byteLength" : 21960,
            "byteOffset" : 21960
        },
        {
            "buffer" : 0,
            "byteLength" : 14640,
            "byteOffset" : 43920
        },
        {
            "buffer" : 0,
            "byteLength" : 19488,
            "byteOffset" : 58560
        }
    ],
    "buffers" : [
        {
            "byteLength" : 78048,
            "uri" : "data:application/octet-stream;base64,"
        }
    ]
}
