{
    "asset" : {
        "generator" : "Khronos glTF Blender I/O v1.1.46",
        "version" : "2.0"
    },
    "scene" : 0,
    "scenes" : [
        {
            "name" : "Scene",
            "nodes" : [
                0
            ]
        }
    ],
    "nodes" : [
        {
            "mesh" : 0,
            "name" : "bfin",
            "rotation" : [
                -0.059929508715867996,
                0.2380003184080124,
                -0.2671300172805786,
                0.9318829774856567
            ],
            "translation" : [
                0.6591324210166931,
                1.4653171300888062,
                -0.6423401832580566
            ]
        }
    ],
    "meshes" : [
        {
            "name" : "Cube.001",
            "primitives" : [
                {
                    "attributes" : {
                        "POSITION" : 0,
                        "NORMAL" : 1,
                        "TEXCOORD_0" : 2
                    },
                    "indices" : 3
                }
            ]
        }
    ],
    "accessors" : [
        {
            "bufferView" : 0,
            "componentType" : 5126,
            "count" : 134,
            "max" : [
                0.3900872468948364,
                0.4538251459598541,
                0.2957373857498169
            ],
            "min" : [
                -0.39076441526412964,
                -0.2989247441291809,
                0.12319164723157883
            ],
            "type" : "VEC3"
        },
        {
            "bufferView" : 1,
            "componentType" : 5126,
            "count" : 134,
            "type" : "VEC3"
        },
        {
            "bufferView" : 2,
            "componentType" : 5126,
            "count" : 134,
            "type" : "VEC2"
        },
        {
            "bufferView" : 3,
            "componentType" : 5123,
            "count" : 624,
            "type" : "SCALAR"
        }
    ],
    "bufferViews" : [
        {
            "buffer" : 0,
            "byteLength" : 1608,
            "byteOffset" : 0
        },
        {
            "buffer" : 0,
            "byteLength" : 1608,
            "byteOffset" : 1608
        },
        {
            "buffer" : 0,
            "byteLength" : 1072,
            "byteOffset" : 3216
        },
        {
            "buffer" : 0,
            "byteLength" : 1248,
            "byteOffset" : 4288
        }
    ],
    "buffers" : [
        {
            "byteLength" : 5536,
            "uri" : "data:application/octet-stream;base64,"
        }
    ]
}
