{
    "asset" : {
        "generator" : "Khronos glTF Blender I/O v1.1.46",
        "version" : "2.0"
    },
    "scene" : 0,
    "scenes" : [
        {
            "name" : "Scene",
            "nodes" : [
                0
            ]
        }
    ],
    "nodes" : [
        {
            "mesh" : 0,
            "name" : "body",
            "rotation" : [
                0.0995955541729927,
                0.2687702775001526,
                0.6122275590896606,
                0.7368993759155273
            ],
            "translation" : [
                -0.10156995803117752,
                0,
                0
            ]
        }
    ],
    "meshes" : [
        {
            "name" : "Sphere.004",
            "primitives" : [
                {
                    "attributes" : {
                        "POSITION" : 0,
                        "NORMAL" : 1,
                        "TEXCOORD_0" : 2
                    },
                    "indices" : 3
                }
            ]
        }
    ],
    "accessors" : [
        {
            "bufferView" : 0,
            "componentType" : 5126,
            "count" : 1432,
            "max" : [
                1.409460425376892,
                0.14487719535827637,
                1.3502899408340454
            ],
            "min" : [
                -1.7517441511154175,
                -1.955163836479187,
                -1.4956191778182983
            ],
            "type" : "VEC3"
        },
        {
            "bufferView" : 1,
            "componentType" : 5126,
            "count" : 1432,
            "type" : "VEC3"
        },
        {
            "bufferView" : 2,
            "componentType" : 5126,
            "count" : 1432,
            "type" : "VEC2"
        },
        {
            "bufferView" : 3,
            "componentType" : 5123,
            "count" : 7950,
            "type" : "SCALAR"
        }
    ],
    "bufferViews" : [
        {
            "buffer" : 0,
            "byteLength" : 17184,
            "byteOffset" : 0
        },
        {
            "buffer" : 0,
            "byteLength" : 17184,
            "byteOffset" : 17184
        },
        {
            "buffer" : 0,
            "byteLength" : 11456,
            "byteOffset" : 34368
        },
        {
            "buffer" : 0,
            "byteLength" : 15900,
            "byteOffset" : 45824
        }
    ],
    "buffers" : [
        {
            "byteLength" : 61724,
            "uri" : "data:application/octet-stream;base64,"
        }
    ]
}
