{
    "asset" : {
        "generator" : "Khronos glTF Blender I/O v1.1.46",
        "version" : "2.0"
    },
    "scene" : 0,
    "scenes" : [
        {
            "name" : "Scene",
            "nodes" : [
                0
            ]
        }
    ],
    "nodes" : [
        {
            "mesh" : 0,
            "name" : "head",
            "rotation" : [
                0.0995955541729927,
                0.2687702775001526,
                0.6122275590896606,
                0.7368993759155273
            ],
            "translation" : [
                -0.10156995803117752,
                0,
                0
            ]
        }
    ],
    "meshes" : [
        {
            "name" : "Sphere.001",
            "primitives" : [
                {
                    "attributes" : {
                        "POSITION" : 0,
                        "NORMAL" : 1,
                        "TEXCOORD_0" : 2
                    },
                    "indices" : 3
                }
            ]
        }
    ],
    "accessors" : [
        {
            "bufferView" : 0,
            "componentType" : 5126,
            "count" : 2725,
            "max" : [
                1.6720603704452515,
                2.6774420738220215,
                1.7617993354797363
            ],
            "min" : [
                -1.8362233638763428,
                -0.6726901531219482,
                -1.578611135482788
            ],
            "type" : "VEC3"
        },
        {
            "bufferView" : 1,
            "componentType" : 5126,
            "count" : 2725,
            "type" : "VEC3"
        },
        {
            "bufferView" : 2,
            "componentType" : 5126,
            "count" : 2725,
            "type" : "VEC2"
        },
        {
            "bufferView" : 3,
            "componentType" : 5123,
            "count" : 14982,
            "type" : "SCALAR"
        }
    ],
    "bufferViews" : [
        {
            "buffer" : 0,
            "byteLength" : 32700,
            "byteOffset" : 0
        },
        {
            "buffer" : 0,
            "byteLength" : 32700,
            "byteOffset" : 32700
        },
        {
            "buffer" : 0,
            "byteLength" : 21800,
            "byteOffset" : 65400
        },
        {
            "buffer" : 0,
            "byteLength" : 29964,
            "byteOffset" : 87200
        }
    ],
    "buffers" : [
        {
            "byteLength" : 117164,
            "uri" : "data:application/octet-stream;base64,"
        }
    ]
}
