{
    "asset" : {
        "generator" : "Khronos glTF Blender I/O v1.1.46",
        "version" : "2.0"
    },
    "scene" : 0,
    "scenes" : [
        {
            "name" : "Scene",
            "nodes" : [
                0
            ]
        }
    ],
    "nodes" : [
        {
            "mesh" : 0,
            "name" : "head",
            "rotation" : [
                -0.09227242320775986,
                0,
                0,
                0.9957337975502014
            ],
            "scale" : [
                2.654249668121338,
                2.654249668121338,
                2.654249668121338
            ],
            "translation" : [
                0,
                0.16502881050109863,
                0.8343110084533691
            ]
        }
    ],
    "meshes" : [
        {
            "name" : "Sphere.002",
            "primitives" : [
                {
                    "attributes" : {
                        "POSITION" : 0,
                        "NORMAL" : 1,
                        "TEXCOORD_0" : 2
                    },
                    "indices" : 3
                }
            ]
        }
    ],
    "accessors" : [
        {
            "bufferView" : 0,
            "componentType" : 5126,
            "count" : 473,
            "max" : [
                0.8741845488548279,
                0.9849452376365662,
                1.0795398950576782
            ],
            "min" : [
                -0.8045884966850281,
                -1.0424047708511353,
                -0.2700415849685669
            ],
            "type" : "VEC3"
        },
        {
            "bufferView" : 1,
            "componentType" : 5126,
            "count" : 473,
            "type" : "VEC3"
        },
        {
            "bufferView" : 2,
            "componentType" : 5126,
            "count" : 473,
            "type" : "VEC2"
        },
        {
            "bufferView" : 3,
            "componentType" : 5123,
            "count" : 2442,
            "type" : "SCALAR"
        }
    ],
    "bufferViews" : [
        {
            "buffer" : 0,
            "byteLength" : 5676,
            "byteOffset" : 0
        },
        {
            "buffer" : 0,
            "byteLength" : 5676,
            "byteOffset" : 5676
        },
        {
            "buffer" : 0,
            "byteLength" : 3784,
            "byteOffset" : 11352
        },
        {
            "buffer" : 0,
            "byteLength" : 4884,
            "byteOffset" : 15136
        }
    ],
    "buffers" : [
        {
            "byteLength" : 20020,
            "uri" : "data:application/octet-stream;base64,"
        }
    ]
}
